<svg width="24" height="24" viewBox="0 0 24 24" fill="none" xmlns="http://www.w3.org/2000/svg">
<path d="M9.62 16L11.12 17.5L14.37 14.5" stroke="#8DC73F" stroke-width="1.5" stroke-linecap="round" stroke-linejoin="round"/>
<path d="M8.80994 2L5.18994 5.63" stroke="#8DC73F" stroke-width="1.5" stroke-miterlimit="10" stroke-linecap="round" stroke-linejoin="round"/>
<path d="M15.1899 2L18.8099 5.63" stroke="#8DC73F" stroke-width="1.5" stroke-miterlimit="10" stroke-linecap="round" stroke-linejoin="round"/>
<path d="M2 7.8501C2 6.0001 2.99 5.8501 4.22 5.8501H19.78C21.01 5.8501 22 6.0001 22 7.8501C22 10.0001 21.01 9.8501 19.78 9.8501H4.22C2.99 9.8501 2 10.0001 2 7.8501Z" stroke="#8DC73F" stroke-width="1.5"/>
<path d="M4.91003 18.64C5.23003 20.58 6.00003 22 8.86003 22H14.89C18 22 18.46 20.64 18.82 18.76L20.5 10" stroke="#8DC73F" stroke-width="1.5" stroke-linecap="round"/>
<path d="M3.5 10L4.19 14.25" stroke="#8DC73F" stroke-width="1.5" stroke-linecap="round"/>
</svg>
