<svg width="147" height="130" viewBox="0 0 147 130" fill="none" xmlns="http://www.w3.org/2000/svg">
<path fill-rule="evenodd" clip-rule="evenodd" d="M40.6167 2.22334C40.2444 2.12819 39.8939 1.96242 39.5842 1.73503L38.0133 0.581741C37.4985 0.203796 36.8766 0 36.2379 0H25.6753C24.3046 0 23.1082 0.929062 22.7687 2.25708L21.2228 8.30524C21.1276 8.67749 20.9619 9.028 20.7345 9.33771L13.0518 19.8023C11.7938 21.5157 12.6676 23.9578 14.7271 24.4843L27.3047 27.6991C27.6769 27.7943 28.0275 27.9601 28.3372 28.1874L38.8018 35.8702C40.5152 37.1281 42.9573 36.2543 43.4837 34.1949L46.6986 21.6172C46.7938 21.245 46.9595 20.8945 47.1869 20.5848L54.8696 10.1202C56.1276 8.40674 55.2537 5.96463 53.1943 5.43823L40.6167 2.22334ZM14.4379 35.7276C14.9644 33.6682 17.4064 32.7943 19.1199 34.0523L29.5845 41.735C29.8942 41.9624 30.2447 42.1282 30.6169 42.2233L43.1946 45.4382C45.254 45.9646 46.1279 48.4067 44.8699 50.1202L37.1871 60.5848C36.9598 60.8945 36.794 61.245 36.6989 61.6172L33.484 74.1949C32.9575 76.2543 30.5154 77.1281 28.802 75.8702L18.3374 68.1874C18.0277 67.9601 17.6772 67.7943 17.3049 67.6991L4.7273 64.4843C2.66791 63.9579 1.79401 61.5157 3.052 59.8023L10.7347 49.3377C10.9621 49.028 11.1279 48.6775 11.223 48.3052L14.4379 35.7276ZM19.1199 74.0523C17.4064 72.7943 14.9644 73.6682 14.4379 75.7276L11.223 88.3052C11.1279 88.6775 10.9621 89.028 10.7347 89.3377L3.052 99.8023C1.79401 101.516 2.66791 103.958 4.7273 104.484L17.3049 107.699C17.6772 107.794 18.0277 107.96 18.3374 108.187L28.802 115.87C30.5154 117.128 32.9575 116.254 33.484 114.195L36.6989 101.617C36.794 101.245 36.9598 100.894 37.1871 100.585L44.8699 90.1202C46.1279 88.4067 45.254 85.9646 43.1946 85.4382L30.6169 82.2233C30.2447 82.1282 29.8942 81.9624 29.5845 81.735L19.1199 74.0523ZM20.6168 122.223C20.2445 122.128 19.894 121.962 19.5843 121.735L9.11975 114.052C7.40625 112.794 4.96418 113.668 4.43775 115.728L1.10987 128.747C1.08936 128.828 1.05359 128.903 1.00458 128.97C0.690799 129.397 0.995975 130 1.52619 130H33.8638C34.5517 130 35.1984 129.673 35.6055 129.118C36.5114 127.884 35.8821 126.125 34.3989 125.746L20.6168 122.223ZM78.5842 1.73503C78.8939 1.96242 79.2444 2.12819 79.6167 2.22334L92.1943 5.43823C94.2537 5.96463 95.1276 8.40674 93.8696 10.1202L86.1869 20.5848C85.9595 20.8945 85.7938 21.245 85.6986 21.6172L82.4837 34.1949C81.9573 36.2543 79.5152 37.1281 77.8018 35.8702L67.3372 28.1874C67.0275 27.9601 66.6769 27.7943 66.3047 27.6991L53.7271 24.4843C51.6676 23.9578 50.7938 21.5157 52.0518 19.8023L59.7345 9.33771C59.9619 9.028 60.1276 8.67749 60.2228 8.30524L61.7687 2.25708C62.1082 0.929062 63.3046 0 64.6753 0H75.2379C75.8766 0 76.4985 0.203796 77.0133 0.581741L78.5842 1.73503ZM53.4379 35.7276C53.9644 33.6682 56.4064 32.7943 58.1199 34.0523L68.5845 41.735C68.8942 41.9624 69.2447 42.1282 69.6169 42.2233L82.1946 45.4382C84.254 45.9646 85.1279 48.4067 83.8699 50.1202L76.1871 60.5848C75.9598 60.8945 75.794 61.245 75.6989 61.6172L72.4839 74.1949C71.9575 76.2543 69.5154 77.1281 67.802 75.8702L57.3374 68.1874C57.0277 67.9601 56.6772 67.7943 56.3049 67.6991L43.7273 64.4843C41.6679 63.9579 40.794 61.5157 42.052 59.8023L49.7347 49.3377C49.9621 49.028 50.1279 48.6775 50.223 48.3052L53.4379 35.7276ZM58.1199 74.0523C56.4064 72.7943 53.9644 73.6682 53.4379 75.7276L50.223 88.3052C50.1279 88.6775 49.9621 89.028 49.7347 89.3377L42.052 99.8023C40.794 101.516 41.6679 103.958 43.7273 104.484L56.3049 107.699C56.6772 107.794 57.0277 107.96 57.3374 108.187L67.802 115.87C69.5154 117.128 71.9575 116.254 72.4839 114.195L75.6989 101.617C75.794 101.245 75.9598 100.894 76.1871 100.585L83.8699 90.1202C85.1279 88.4067 84.254 85.9646 82.1946 85.4382L69.6169 82.2233C69.2447 82.1282 68.8942 81.9624 68.5845 81.735L58.1199 74.0523ZM59.6168 122.223C59.2445 122.128 58.894 121.962 58.5843 121.735L48.1198 114.052C46.4063 112.794 43.9642 113.668 43.4377 115.728L40.1099 128.747C40.0995 128.788 40.0852 128.827 40.0673 128.865C40.0498 128.902 40.0288 128.937 40.0046 128.97C39.6908 129.397 39.996 130 40.5262 130H72.8638C73.5517 130 74.1984 129.673 74.6055 129.118C75.5114 127.884 74.8821 126.125 73.3989 125.746L59.6168 122.223ZM117.584 1.73503C117.894 1.96242 118.244 2.12819 118.617 2.22334L131.194 5.43823C133.254 5.96463 134.128 8.40674 132.87 10.1202L125.187 20.5848C124.96 20.8945 124.794 21.245 124.699 21.6172L121.484 34.1949C120.957 36.2543 118.515 37.1281 116.802 35.8702L106.337 28.1874C106.027 27.9601 105.677 27.7943 105.305 27.6991L92.7271 24.4843C90.6676 23.9578 89.7938 21.5157 91.0518 19.8023L98.7345 9.33771C98.9619 9.028 99.1276 8.67749 99.2228 8.30524L100.769 2.25708C101.108 0.929062 102.305 0 103.675 0H114.238C114.877 0 115.499 0.203796 116.013 0.581741L117.584 1.73503ZM92.4379 35.7276C92.9644 33.6682 95.4064 32.7943 97.1199 34.0523L107.584 41.735C107.894 41.9624 108.245 42.1282 108.617 42.2233L121.195 45.4382C123.254 45.9646 124.128 48.4067 122.87 50.1202L115.187 60.5848C114.96 60.8945 114.794 61.245 114.699 61.6172L111.484 74.1949C110.958 76.2543 108.515 77.1281 106.802 75.8702L96.3374 68.1874C96.0277 67.9601 95.6772 67.7943 95.3049 67.6991L82.7273 64.4843C80.6679 63.9579 79.794 61.5157 81.052 59.8023L88.7347 49.3377C88.9621 49.028 89.1279 48.6775 89.223 48.3052L92.4379 35.7276ZM97.1199 74.0523C95.4064 72.7943 92.9644 73.6682 92.4379 75.7276L89.223 88.3052C89.1279 88.6775 88.9621 89.028 88.7347 89.3377L81.052 99.8023C79.794 101.516 80.6679 103.958 82.7273 104.484L95.3049 107.699C95.6772 107.794 96.0277 107.96 96.3374 108.187L106.802 115.87C108.515 117.128 110.958 116.254 111.484 114.195L114.699 101.617C114.794 101.245 114.96 100.894 115.187 100.585L122.87 90.1202C124.128 88.4067 123.254 85.9646 121.195 85.4382L108.617 82.2233C108.245 82.1282 107.894 81.9624 107.584 81.735L97.1199 74.0523ZM98.6168 122.223C98.2445 122.128 97.894 121.962 97.5843 121.735L87.1198 114.052C85.4062 112.794 82.9642 113.668 82.4377 115.728L79.1099 128.747C79.0894 128.828 79.0536 128.903 79.0046 128.97C78.6908 129.397 78.996 130 79.5262 130H111.864C112.552 130 113.198 129.673 113.605 129.118C114.511 127.884 113.882 126.125 112.399 125.746L98.6168 122.223ZM136.12 34.0523L147 42.04V70.8254C147 73.2834 144.206 74.6983 142.224 73.2437L135.337 68.1874C135.028 67.9601 134.677 67.7943 134.305 67.6991L121.727 64.4843C119.668 63.9579 118.794 61.5157 120.052 59.8023L127.735 49.3377C127.962 49.028 128.128 48.6775 128.223 48.3052L131.438 35.7276C131.964 33.6682 134.406 32.7943 136.12 34.0523Z" fill="#C2DF9B"/>
</svg>
