<svg width="24" height="24" viewBox="0 0 24 24" fill="none" xmlns="http://www.w3.org/2000/svg">
<g clip-path="url(#clip0_347_8404)">
<path d="M13.5566 4.412C13.6835 4.16888 13.7509 3.89916 13.7534 3.62495C13.7534 2.64971 12.9628 1.85913 11.9876 1.85913C11.0123 1.85913 10.2218 2.64971 10.2218 3.62495C10.2242 3.89916 10.2917 4.16888 10.4185 4.412C6.20073 4.6239 2.3462 5.70357 2.3462 7.58543C2.34584 7.65615 2.36036 7.72616 2.38881 7.79091C2.41726 7.85566 2.459 7.9137 2.51133 7.96127C2.56367 8.00885 2.62541 8.04489 2.69257 8.06705C2.75973 8.08922 2.8308 8.09702 2.90117 8.08995H21.1244C21.2582 8.08995 21.3866 8.03679 21.4812 7.94218C21.5758 7.84756 21.6289 7.71924 21.6289 7.58543C21.6289 5.70357 17.7895 4.6239 13.5566 4.412ZM12.0128 2.87322C12.4252 2.87322 12.7595 3.20752 12.7595 3.6199C12.7595 4.03229 12.4252 4.36659 12.0128 4.36659C11.6004 4.36659 11.2661 4.03229 11.2661 3.6199C11.2661 3.20752 11.6004 2.87322 12.0128 2.87322ZM3.71345 7.10109C4.64681 6.26359 7.68402 5.37563 12.0128 5.37563V5.39581C16.3416 5.39581 19.3788 6.28377 20.3121 7.10109H3.71345ZM4.66699 10.5217C4.53318 10.5217 4.40486 10.5749 4.31024 10.6695C4.21562 10.7641 4.16247 10.8924 4.16247 11.0263V16.4498C4.16247 16.5836 4.21562 16.712 4.31024 16.8066C4.40486 16.9012 4.53318 16.9544 4.66699 16.9544C4.8008 16.9544 4.92912 16.9012 5.02374 16.8066C5.11835 16.712 5.17151 16.5836 5.17151 16.4498V11.0263C5.17151 10.8924 5.11835 10.7641 5.02374 10.6695C4.92912 10.5749 4.8008 10.5217 4.66699 10.5217Z" fill="black"/>
<path d="M23.4955 10.6579H21.6288V9.21497C21.6288 9.08116 21.5756 8.95284 21.481 8.85822C21.3864 8.7636 21.258 8.71045 21.1242 8.71045H2.90099C2.76718 8.71045 2.63885 8.7636 2.54424 8.85822C2.44962 8.95284 2.39647 9.08116 2.39647 9.21497V10.6579H0.50452C0.370713 10.6579 0.242386 10.711 0.14777 10.8057C0.0531546 10.9003 0 11.0286 0 11.1624C0 11.2962 0.0531546 11.4245 0.14777 11.5192C0.242386 11.6138 0.370713 11.6669 0.50452 11.6669H2.40151V19.1136C2.40151 21.3487 4.00084 22.1408 5.50431 22.1408H18.5714C20.8064 22.1408 21.5985 20.5768 21.5985 19.1136V11.6669H23.4955C23.6293 11.6669 23.7576 11.6138 23.8522 11.5192C23.9468 11.4245 24 11.2962 24 11.1624C24 11.0286 23.9468 10.9003 23.8522 10.8057C23.7576 10.711 23.6293 10.6579 23.4955 10.6579ZM20.6197 19.1136C20.6197 20.0369 20.2666 21.1317 18.6016 21.1317H5.48413C4.70212 21.1317 3.39037 20.8694 3.39037 19.1136V9.71949H20.6197V19.1136Z" fill="black"/>
</g>
<defs>
<clipPath id="clip0_347_8404">
<rect width="24" height="24" fill="white"/>
</clipPath>
</defs>
</svg>
