<svg width="30" height="30" viewBox="0 0 30 30" fill="none" xmlns="http://www.w3.org/2000/svg">
<path d="M27.5 10.8625C27.5 12.35 27.2625 13.725 26.85 15H3.15C2.7375 13.725 2.5 12.35 2.5 10.8625C2.5 7 5.6125 3.875 9.45 3.875C11.7125 3.875 13.7375 4.975 15 6.6625C16.2625 4.975 18.2875 3.875 20.55 3.875C24.3875 3.875 27.5 7 27.5 10.8625Z" fill="#8DC73F"/>
<path d="M26.85 15C24.875 21.25 18.7875 24.9875 15.775 26.0125C15.35 26.1625 14.65 26.1625 14.225 26.0125C11.2125 24.9875 5.12502 21.25 3.15002 15H26.85Z" fill="#8DC73F"/>
</svg>
