<svg width="28" height="20" viewBox="0 0 28 20" fill="none" xmlns="http://www.w3.org/2000/svg">
<rect x="0.25" y="0.25" width="27.5" height="19.5" rx="1.75" fill="white" stroke="#F5F5F5" stroke-width="0.5"/>
<mask id="mask0_532_20624" style="mask-type:luminance" maskUnits="userSpaceOnUse" x="0" y="0" width="28" height="20">
<rect x="0.25" y="0.25" width="27.5" height="19.5" rx="1.75" fill="white" stroke="white" stroke-width="0.5"/>
</mask>
<g mask="url(#mask0_532_20624)">
<path fill-rule="evenodd" clip-rule="evenodd" d="M0 6.66667H28V0H0V6.66667Z" fill="#04AAC8"/>
<path fill-rule="evenodd" clip-rule="evenodd" d="M0 19.9999H28V13.3333H0V19.9999Z" fill="#23C840"/>
<path fill-rule="evenodd" clip-rule="evenodd" d="M4.66797 5.33325C5.07925 5.33325 5.46153 5.20911 5.77939 4.99625C5.74257 4.99868 5.70541 4.99992 5.66797 4.99992C4.74749 4.99992 4.0013 4.25373 4.0013 3.33325C4.0013 2.41278 4.74749 1.66659 5.66797 1.66659C5.70541 1.66659 5.74257 1.66782 5.77939 1.67025C5.46153 1.45739 5.07925 1.33325 4.66797 1.33325C3.5634 1.33325 2.66797 2.22868 2.66797 3.33325C2.66797 4.43782 3.5634 5.33325 4.66797 5.33325ZM8.0013 4.66659C8.0013 5.03478 7.70283 5.33325 7.33464 5.33325C6.96645 5.33325 6.66797 5.03478 6.66797 4.66659C6.66797 4.2984 6.96645 3.99992 7.33464 3.99992C7.70283 3.99992 8.0013 4.2984 8.0013 4.66659ZM10.0013 2.66659C10.3695 2.66659 10.668 2.36811 10.668 1.99992C10.668 1.63173 10.3695 1.33325 10.0013 1.33325C9.63311 1.33325 9.33464 1.63173 9.33464 1.99992C9.33464 2.36811 9.63311 2.66659 10.0013 2.66659ZM13.3346 1.99992C13.3346 2.36811 13.0362 2.66659 12.668 2.66659C12.2998 2.66659 12.0013 2.36811 12.0013 1.99992C12.0013 1.63173 12.2998 1.33325 12.668 1.33325C13.0362 1.33325 13.3346 1.63173 13.3346 1.99992ZM12.668 5.33325C13.0362 5.33325 13.3346 5.03478 13.3346 4.66659C13.3346 4.2984 13.0362 3.99992 12.668 3.99992C12.2998 3.99992 12.0013 4.2984 12.0013 4.66659C12.0013 5.03478 12.2998 5.33325 12.668 5.33325ZM10.668 4.66659C10.668 5.03478 10.3695 5.33325 10.0013 5.33325C9.63311 5.33325 9.33464 5.03478 9.33464 4.66659C9.33464 4.2984 9.63311 3.99992 10.0013 3.99992C10.3695 3.99992 10.668 4.2984 10.668 4.66659Z" fill="white"/>
</g>
</svg>
