<svg width="24" height="24" viewBox="0 0 24 24" fill="none" xmlns="http://www.w3.org/2000/svg">
<path d="M2.28017 21H21.7543C21.924 20.9988 22.0912 20.9594 22.2436 20.8848C22.396 20.8102 22.5297 20.7023 22.6347 20.5691C22.7398 20.4359 22.8136 20.2807 22.8506 20.1152C22.8876 19.9496 22.8869 19.7778 22.8485 19.6125L18.9444 3.288C18.9249 3.20596 18.8782 3.1329 18.812 3.08065C18.7458 3.02839 18.6639 2.99998 18.5795 3H5.45455C5.37027 3.00006 5.28846 3.02851 5.22233 3.08076C5.1562 3.13301 5.1096 3.20602 5.09005 3.288L1.18592 19.6125C1.14765 19.7778 1.14701 19.9495 1.18405 20.1151C1.22109 20.2806 1.29487 20.4358 1.39992 20.569C1.50498 20.7022 1.63862 20.8101 1.79099 20.8847C1.94335 20.9593 2.11053 20.9987 2.28017 21ZM1.9153 19.7876L5.75042 3.75H18.2837L22.1188 19.7876C22.1316 19.8427 22.1318 19.8999 22.1194 19.9551C22.1071 20.0102 22.0825 20.0619 22.0475 20.1063C22.0126 20.1507 21.968 20.1867 21.9173 20.2115C21.8665 20.2364 21.8108 20.2495 21.7543 20.25H2.28017C2.22364 20.2495 2.16794 20.2364 2.11717 20.2115C2.06641 20.1866 2.02187 20.1507 1.98685 20.1063C1.95183 20.0619 1.92722 20.0103 1.91483 19.9551C1.90245 19.8999 1.90261 19.8427 1.9153 19.7876ZM6.20455 7.47C5.52692 16.5199 18.5091 16.5161 17.8295 7.47C18.0089 7.28568 18.1299 7.05258 18.1775 6.79984C18.225 6.54711 18.1971 6.28597 18.097 6.04905C17.997 5.81214 17.8293 5.60998 17.615 5.46783C17.4007 5.32569 17.1492 5.24988 16.892 5.24988C16.6349 5.24988 16.3834 5.32569 16.1691 5.46783C15.9548 5.60998 15.7871 5.81214 15.6871 6.04905C15.587 6.28597 15.5591 6.54711 15.6066 6.79984C15.6542 7.05258 15.7752 7.28568 15.9545 7.47V8.625C15.8259 13.6414 8.20705 13.6286 8.07955 8.625V7.47C8.25888 7.28568 8.3799 7.05258 8.42747 6.79984C8.47505 6.54711 8.44706 6.28597 8.34702 6.04905C8.24698 5.81214 8.07932 5.60998 7.865 5.46783C7.65068 5.32569 7.39922 5.24988 7.14205 5.24988C6.88488 5.24988 6.63342 5.32569 6.4191 5.46783C6.20478 5.60998 6.03712 5.81214 5.93708 6.04905C5.83704 6.28597 5.80905 6.54711 5.85662 6.79984C5.9042 7.05258 6.02522 7.28568 6.20455 7.47ZM16.892 6C17.0092 6.00182 17.1229 6.04 17.2175 6.10926C17.312 6.17852 17.3827 6.27543 17.4197 6.38661C17.4568 6.49778 17.4584 6.61772 17.4243 6.72984C17.3903 6.84197 17.3222 6.94074 17.2295 7.0125C17.1581 7.06783 17.0745 7.10523 16.9856 7.12159C16.8968 7.13794 16.8053 7.13277 16.7188 7.1065C16.6324 7.08024 16.5535 7.03364 16.4888 6.97061C16.424 6.90759 16.3753 6.82997 16.3468 6.74426C16.3182 6.65855 16.3106 6.56724 16.3246 6.47798C16.3385 6.38872 16.3737 6.3041 16.4271 6.23122C16.4805 6.15834 16.5506 6.09931 16.6315 6.05908C16.7124 6.01885 16.8017 5.99859 16.892 6ZM11.8295 13.125C12.45 13.1713 13.0734 13.0895 13.661 12.8846C14.2485 12.6798 14.7876 12.3563 15.2448 11.9342C15.702 11.5122 16.0675 11.0006 16.3187 10.4314C16.5698 9.86206 16.7011 9.24721 16.7045 8.625V7.85962C16.8288 7.8795 16.9553 7.8795 17.0795 7.85962C17.5179 15.3765 6.51542 15.372 6.95455 7.85962C7.07876 7.87954 7.20534 7.87954 7.32955 7.85962C7.07005 10.6669 8.93567 13.0875 11.8295 13.125ZM7.14205 6C7.25922 6.00182 7.37293 6.04 7.46747 6.10926C7.562 6.17852 7.63268 6.27543 7.66974 6.38661C7.70679 6.49778 7.7084 6.61772 7.67433 6.72984C7.64026 6.84197 7.57219 6.94074 7.47955 7.0125C7.40812 7.06783 7.32448 7.10523 7.23563 7.12159C7.14677 7.13794 7.05529 7.13277 6.96884 7.1065C6.8824 7.08024 6.8035 7.03364 6.73877 6.97061C6.67404 6.90759 6.62534 6.82997 6.59677 6.74426C6.5682 6.65855 6.56059 6.56724 6.57456 6.47798C6.58853 6.38872 6.62369 6.3041 6.67708 6.23122C6.73048 6.15834 6.80056 6.09931 6.88146 6.05908C6.96235 6.01885 7.05171 5.99859 7.14205 6Z" fill="black"/>
</svg>
