<svg width="83" height="31" viewBox="0 0 83 31" fill="none" xmlns="http://www.w3.org/2000/svg">
<path d="M3.58149 1.04468C3.05388 0.405992 2.10841 0.315947 1.46973 0.843557C0.831041 1.37117 0.740996 2.31664 1.26861 2.95532L3.58149 1.04468ZM82.886 16.3402C83.0739 15.5334 82.5721 14.727 81.7653 14.5391L68.6171 11.4772C67.8102 11.2893 67.0039 11.791 66.816 12.5979C66.6281 13.4047 67.1298 14.2111 67.9367 14.399L79.6239 17.1207L76.9022 28.808C76.7143 29.6148 77.2161 30.4212 78.0229 30.6091C78.8298 30.797 79.6362 30.2952 79.8241 29.4884L82.886 16.3402ZM1.26861 2.95532C11.0409 14.785 25.5191 21.9332 40.3711 24.3554C55.2138 26.7761 70.5981 24.5034 82.2175 17.2736L80.6326 14.7264C69.752 21.4966 55.1363 23.7239 40.854 21.3946C26.581 19.0668 12.8092 12.215 3.58149 1.04468L1.26861 2.95532Z" fill="white"/>
</svg>
