<svg width="24" height="24" viewBox="0 0 24 24" fill="none" xmlns="http://www.w3.org/2000/svg">
<path d="M10.7778 15.0281H10.6934V10.358C10.6932 10.1411 10.6069 9.93318 10.4536 9.77983C10.3002 9.62647 10.0923 9.54021 9.87541 9.53997H9.79103V5.60496C9.79103 4.67008 9.75217 3.82118 9.29847 2.92783C9.26324 2.84297 9.21162 2.76589 9.14655 2.70101C8.65389 2.20779 7.70725 2.63852 7.02705 3.31872C6.51517 3.8306 6.14481 4.49322 6.20294 5.00004V9.53997H6.11856C5.90168 9.54021 5.69375 9.62647 5.54038 9.77982C5.38702 9.93318 5.30075 10.1411 5.3005 10.358V15.0281H5.21613C4.99928 15.0284 4.79142 15.1148 4.63813 15.2682C4.48485 15.4215 4.39865 15.6295 4.39844 15.8463V21.9568C4.39901 22.4654 4.60131 22.953 4.96096 23.3127C5.3206 23.6723 5.80823 23.8746 6.31684 23.8752H9.67745C10.1861 23.8746 10.6737 23.6723 11.0333 23.3127C11.393 22.953 11.5953 22.4654 11.5959 21.9568V15.8463C11.5956 15.6294 11.5094 15.4214 11.356 15.268C11.2027 15.1146 10.9947 15.0283 10.7778 15.0281ZM7.49106 3.78279C7.97594 3.29791 8.4145 3.14383 8.59928 3.14383C8.6288 3.1406 8.65849 3.14816 8.68286 3.16512C8.6841 3.16649 8.68524 3.16794 8.68628 3.16947C8.69003 3.1766 8.69327 3.18354 8.69697 3.19085C8.73827 3.3221 8.61259 3.8096 8.06537 4.35682C7.4717 4.95049 6.94741 5.04827 6.87358 4.97449C6.79975 4.90071 6.89744 4.37637 7.49106 3.78279ZM6.85919 5.64588C6.89118 5.64932 6.92334 5.65112 6.95552 5.65127C7.44587 5.65127 8.05295 5.29727 8.52925 4.82097C8.72276 4.62849 8.89375 4.41461 9.03892 4.18347C9.12428 4.63179 9.13516 5.0944 9.13516 5.60505V9.53997H6.85919V5.64588ZM5.95694 10.358C5.95753 10.3153 5.97477 10.2745 6.00499 10.2442C6.03521 10.214 6.07602 10.1968 6.11875 10.1962H9.87564C9.91836 10.1968 9.95916 10.2141 9.98937 10.2443C10.0196 10.2745 10.0368 10.3153 10.0374 10.358V15.0281H5.95694V10.358ZM5.2165 15.6844H10.7778C10.8205 15.6849 10.8614 15.7022 10.8916 15.7324C10.9218 15.7626 10.939 15.8034 10.9396 15.8462V16.6781H5.05469V15.8463C5.05523 15.8035 5.07245 15.7627 5.10268 15.7324C5.1329 15.7022 5.17374 15.6849 5.2165 15.6844ZM10.9396 17.3344V18.7425H5.05469V17.3344H10.9396ZM9.67745 23.2189H6.31684C5.98222 23.2186 5.66141 23.0855 5.42479 22.8488C5.18817 22.6122 5.05507 22.2914 5.05469 21.9568V19.3987H10.9396V21.9568C10.9392 22.2914 10.8061 22.6122 10.5695 22.8488C10.3329 23.0855 10.0121 23.2186 9.67745 23.2189ZM18.5312 1.41687C18.1927 1.08097 17.7905 0.816168 17.3481 0.638043C16.9058 0.459918 16.4323 0.372068 15.9555 0.379662C13.9975 0.405068 12.4045 2.04119 12.4045 4.02682V22.1578C12.405 22.6132 12.5861 23.0497 12.9081 23.3717C13.2301 23.6937 13.6667 23.8749 14.122 23.8754H17.8843C18.3397 23.8749 18.7762 23.6937 19.0982 23.3717C19.4202 23.0497 19.6014 22.6132 19.6019 22.1578V3.97807C19.6033 3.50132 19.5093 3.0291 19.3254 2.58924C19.1416 2.14938 18.8715 1.75076 18.5312 1.41687ZM15.964 1.03591C16.3537 1.03072 16.7405 1.10298 17.102 1.2485C17.4635 1.39403 17.7925 1.60992 18.0699 1.88364C18.3473 2.15736 18.5676 2.48346 18.7179 2.843C18.8682 3.20254 18.9456 3.58836 18.9456 3.97807V7.71185H13.0607V4.02682C13.0607 2.39838 14.3631 1.05663 15.964 1.03591ZM18.9456 8.3681V9.77613H13.0607V8.3681H18.9456ZM17.8843 23.2189H14.122C13.8407 23.2186 13.5709 23.1067 13.372 22.9078C13.173 22.7089 13.0611 22.4391 13.0607 22.1578V10.4324H18.9456V22.1578C18.9453 22.4391 18.8333 22.7089 18.6344 22.9078C18.4354 23.1067 18.1656 23.2186 17.8843 23.2189ZM7.85641 1.71597V0.452881C7.85641 0.365857 7.89098 0.282397 7.95251 0.220861C8.01405 0.159326 8.09751 0.124756 8.18453 0.124756C8.27156 0.124756 8.35502 0.159326 8.41655 0.220861C8.47809 0.282397 8.51266 0.365857 8.51266 0.452881V1.71597C8.51266 1.803 8.47809 1.88646 8.41655 1.94799C8.35502 2.00953 8.27156 2.0441 8.18453 2.0441C8.09751 2.0441 8.01405 2.00953 7.95251 1.94799C7.89098 1.88646 7.85641 1.803 7.85641 1.71597ZM9.92242 2.76396C9.89195 2.73349 9.86778 2.69732 9.85128 2.6575C9.83479 2.61769 9.8263 2.57502 9.8263 2.53193C9.8263 2.48883 9.83479 2.44616 9.85128 2.40635C9.86778 2.36654 9.89195 2.33037 9.92242 2.2999L10.8156 1.40674C10.8771 1.3452 10.9606 1.31063 11.0476 1.31063C11.1346 1.31063 11.2181 1.3452 11.2796 1.40674C11.3412 1.46828 11.3758 1.55174 11.3758 1.63877C11.3758 1.7258 11.3412 1.80926 11.2796 1.8708L10.3866 2.76396C10.3562 2.79443 10.32 2.8186 10.2802 2.8351C10.2404 2.85159 10.1977 2.86008 10.1546 2.86008C10.1115 2.86008 10.0688 2.85159 10.029 2.8351C9.98921 2.8186 9.95303 2.79443 9.92256 2.76396H9.92242ZM5.08961 1.87085C5.02807 1.80931 4.9935 1.72585 4.9935 1.63882C4.9935 1.55179 5.02807 1.46833 5.08961 1.40679C5.15115 1.34525 5.23461 1.31068 5.32164 1.31068C5.40867 1.31068 5.49213 1.34525 5.55367 1.40679L6.44683 2.29994C6.4773 2.33041 6.50147 2.36659 6.51796 2.4064C6.53445 2.44621 6.54294 2.48888 6.54294 2.53197C6.54294 2.57507 6.53445 2.61774 6.51796 2.65755C6.50147 2.69736 6.4773 2.73354 6.44683 2.76401C6.41636 2.79448 6.38018 2.81865 6.34037 2.83514C6.30056 2.85163 6.25789 2.86012 6.2148 2.86012C6.1717 2.86012 6.12903 2.85163 6.08922 2.83514C6.04941 2.81865 6.01324 2.79448 5.98277 2.76401L5.08961 1.87085Z" fill="black"/>
</svg>
