<svg width="40" height="40" viewBox="0 0 40 40" fill="none" xmlns="http://www.w3.org/2000/svg">
<path d="M3.33325 16.6667H36.6666" stroke="#3D4754" stroke-width="1.5" stroke-miterlimit="10" stroke-linecap="round" stroke-linejoin="round"/>
<path d="M19.25 34.1668H10.7333C4.81667 34.1668 3.31665 32.7001 3.31665 26.8501V13.1501C3.31665 7.85011 4.55003 6.1501 9.20003 5.88344C9.6667 5.86677 10.1833 5.8501 10.7333 5.8501H29.25C35.1666 5.8501 36.6667 7.31676 36.6667 13.1668V20.5168" stroke="#3D4754" stroke-width="1.5" stroke-linecap="round" stroke-linejoin="round"/>
<path d="M10 26.6667H16.6667" stroke="#8DC73F" stroke-width="1.5" stroke-miterlimit="10" stroke-linecap="round" stroke-linejoin="round"/>
<path d="M36.6666 29.9999C36.6666 31.2499 36.3166 32.4332 35.6999 33.4332C34.5499 35.3666 32.4333 36.6666 29.9999 36.6666C27.5666 36.6666 25.4499 35.3666 24.2999 33.4332C23.6833 32.4332 23.3333 31.2499 23.3333 29.9999C23.3333 26.3166 26.3166 23.3333 29.9999 23.3333C33.6833 23.3333 36.6666 26.3166 36.6666 29.9999Z" stroke="#8DC73F" stroke-width="1.5" stroke-miterlimit="10" stroke-linecap="round" stroke-linejoin="round"/>
<path d="M27.3999 30L29.0499 31.65L32.5999 28.3667" stroke="#8DC73F" stroke-width="1.5" stroke-linecap="round" stroke-linejoin="round"/>
</svg>
