<svg width="24" height="24" viewBox="0 0 24 24" fill="none" xmlns="http://www.w3.org/2000/svg">
<g clip-path="url(#clip0_74_4555)">
<path d="M23.8705 6.94749C23.865 6.94165 23.8593 6.93596 23.8534 6.93042L18.8992 2.52718C18.854 2.48598 18.8012 2.45399 18.7438 2.43299L15.16 1.15205C15.0907 1.1269 15.0165 1.11836 14.9433 1.12711C14.8702 1.13586 14.8001 1.16166 14.7387 1.20242C14.6773 1.24319 14.6264 1.29779 14.5899 1.36184C14.5535 1.42588 14.5326 1.49759 14.5289 1.57118C14.5289 1.67479 14.3735 4.06242 11.9859 4.1001C9.58411 4.06242 9.43341 1.67479 9.4287 1.57118C9.42479 1.49815 9.40392 1.42704 9.36776 1.36348C9.33159 1.29992 9.28112 1.24565 9.22035 1.20498C9.15957 1.16431 9.09015 1.13835 9.0176 1.12916C8.94505 1.11997 8.87135 1.12781 8.80236 1.15205L5.22325 2.44712C5.1658 2.46813 5.11305 2.5001 5.06784 2.54131L0.146579 6.93042C0.100269 6.97441 0.0633923 7.02737 0.0381935 7.08606C0.0129947 7.14476 0 7.20797 0 7.27184C0 7.33572 0.0129947 7.39893 0.0381935 7.45762C0.0633923 7.51632 0.100269 7.56927 0.146579 7.61327L4.06475 11.5738V22.4053C4.06475 22.5302 4.11437 22.65 4.20269 22.7383C4.29101 22.8266 4.41079 22.8763 4.53569 22.8763H19.4643C19.5892 22.8763 19.709 22.8266 19.7973 22.7383C19.8856 22.65 19.9352 22.5302 19.9352 22.4053V11.5738L23.8534 7.61327C23.8983 7.57067 23.9343 7.51967 23.9594 7.46315C23.9845 7.40664 23.9983 7.34574 23.9998 7.28391C24.0014 7.22209 23.9908 7.16056 23.9686 7.10284C23.9464 7.04511 23.9131 6.99232 23.8705 6.94749ZM19.9211 10.2317V8.04653C19.9211 7.92163 19.8715 7.80185 19.7832 7.71353C19.6949 7.62521 19.5751 7.57559 19.4502 7.57559C19.3253 7.57559 19.2055 7.62521 19.1172 7.71353C19.0289 7.80185 18.9793 7.92163 18.9793 8.04653V21.9108H4.98779V8.04653C4.98779 7.92163 4.93817 7.80185 4.84985 7.71353C4.76154 7.62521 4.64175 7.57559 4.51685 7.57559C4.39195 7.57559 4.27217 7.62521 4.18385 7.71353C4.09553 7.80185 4.04592 7.92163 4.04592 8.04653V10.2364L1.14967 7.30245L5.63297 3.29009L8.58102 2.22578C8.94623 4.10752 10.7677 5.33695 12.6495 4.97174C14.0391 4.70201 15.1257 3.61545 15.3954 2.22578L18.3435 3.29009L22.8127 7.30245L19.9211 10.2317Z" fill="#8DC73F"/>
</g>
<defs>
<clipPath id="clip0_74_4555">
<rect width="24" height="24" fill="white"/>
</clipPath>
</defs>
</svg>
