<svg width="30" height="30" viewBox="0 0 30 30" fill="none" xmlns="http://www.w3.org/2000/svg">
<rect width="30" height="30" rx="10" fill="#F8F8F8"/>
<path d="M12.0299 16.9999C11.6399 16.4299 11.4199 15.7399 11.4199 14.9999C11.4199 13.0199 13.0199 11.4199 14.9999 11.4199C16.9799 11.4199 18.5799 13.0199 18.5799 14.9999C18.5799 16.9799 16.9799 18.5799 14.9999 18.5799" stroke="#8DC73F" stroke-width="1.5" stroke-linecap="round" stroke-linejoin="round"/>
<path d="M20.5598 8.57998C18.8698 7.37998 16.9698 6.72998 14.9998 6.72998C11.4698 6.72998 8.17984 8.80998 5.88984 12.41C4.98984 13.82 4.98984 16.19 5.88984 17.6C8.17984 21.2 11.4698 23.28 14.9998 23.28C18.5298 23.28 21.8198 21.2 24.1098 17.6C25.0098 16.19 25.0098 13.82 24.1098 12.41" stroke="#8DC73F" stroke-width="1.5" stroke-linecap="round" stroke-linejoin="round"/>
</svg>
