<svg width="30" height="30" viewBox="0 0 30 30" fill="none" xmlns="http://www.w3.org/2000/svg">
<rect width="30" height="30" rx="10" fill="#F8F8F8"/>
<path d="M21.0196 14.7999V11.9099C21.0196 8.60991 18.3196 5.90991 15.0196 5.90991C11.7096 5.90991 9.0196 8.59991 9.0196 11.9099V14.7999C9.0196 15.4099 8.7596 16.3399 8.4496 16.8599L7.2996 18.7699C6.5896 19.9499 7.0796 21.2599 8.3796 21.6999C12.6896 23.1399 17.3396 23.1399 21.6496 21.6999C22.8596 21.2999 23.3896 19.8699 22.7296 18.7699" stroke="#8DC73F" stroke-width="1.5" stroke-miterlimit="10" stroke-linecap="round"/>
<path d="M16.8699 6.19994C16.5599 6.10994 16.2399 6.03994 15.9099 5.99994C14.9499 5.87994 14.0299 5.94994 13.1699 6.19994C13.4599 5.45994 14.1799 4.93994 15.0199 4.93994C15.8599 4.93994 16.5799 5.45994 16.8699 6.19994Z" stroke="#8DC73F" stroke-width="1.5" stroke-miterlimit="10" stroke-linecap="round" stroke-linejoin="round"/>
<path d="M18.0195 22.0601C18.0195 23.7101 16.6695 25.0601 15.0195 25.0601C14.1995 25.0601 13.4395 24.7201 12.8995 24.1801C12.3595 23.6401 12.0195 22.8801 12.0195 22.0601" stroke="#8DC73F" stroke-width="1.5" stroke-miterlimit="10"/>
</svg>
