<svg width="30" height="30" viewBox="0 0 30 30" fill="none" xmlns="http://www.w3.org/2000/svg">
<rect width="30" height="30" rx="10" fill="#F8F8F8"/>
<path d="M16 12H10" stroke="#8DC73F" stroke-width="1.5" stroke-linecap="round" stroke-linejoin="round"/>
<path d="M25.0002 13.9699V16.03C25.0002 16.58 24.5602 17.0299 24.0002 17.0499H22.0402C20.9602 17.0499 19.9702 16.2599 19.8802 15.1799C19.8202 14.5499 20.0602 13.9599 20.4802 13.5499C20.8502 13.1699 21.3602 12.95 21.9202 12.95H24.0002C24.5602 12.97 25.0002 13.4199 25.0002 13.9699Z" stroke="#8DC73F" stroke-width="1.5" stroke-linecap="round" stroke-linejoin="round"/>
<path d="M5 11.5C5 8.78 6.64 6.88 9.19 6.56C9.45 6.52 9.72 6.5 10 6.5H19C19.26 6.5 19.51 6.50999 19.75 6.54999C22.33 6.84999 24 8.76 24 11.5V12.95H21.92C21.36 12.95 20.85 13.17 20.48 13.55C20.06 13.96 19.82 14.55 19.88 15.18C19.97 16.26 20.96 17.05 22.04 17.05H24V18.5C24 21.5 22 23.5 19 23.5H10C7 23.5 5 21.5 5 18.5V15.26" stroke="#8DC73F" stroke-width="1.5" stroke-linecap="round" stroke-linejoin="round"/>
</svg>
