<svg width="360" height="146" viewBox="0 0 360 146" fill="none" xmlns="http://www.w3.org/2000/svg">
<rect width="360" height="146" fill="#A7D26C"/>
<path opacity="0.5" fill-rule="evenodd" clip-rule="evenodd" d="M268.042 10.0522C266.329 8.79422 263.887 9.66807 263.36 11.7275L260.145 24.3051C260.05 24.6774 259.885 25.0279 259.657 25.3376L251.974 35.8022C250.716 37.5156 251.59 39.9577 253.65 40.4841L266.227 43.699C266.6 43.7942 266.95 43.9599 267.26 44.1873L277.724 51.8701C279.438 53.128 281.88 52.2542 282.406 50.1947L285.621 37.6171C285.716 37.2449 285.882 36.8944 286.11 36.5847L293.792 26.1201C295.05 24.4066 294.176 21.9645 292.117 21.4381L279.539 18.2232C279.167 18.1281 278.817 17.9623 278.507 17.7349L268.042 10.0522ZM223.438 11.8822C223.965 9.82273 226.407 8.94888 228.12 10.2068L238.585 17.8896C238.894 18.117 239.245 18.2827 239.617 18.3779L252.195 21.5928C254.254 22.1192 255.128 24.5613 253.87 26.2747L246.187 36.7393C245.96 37.049 245.794 37.3995 245.699 37.7718L242.484 50.3494C241.958 52.4088 239.516 53.2827 237.802 52.0247L227.338 44.342C227.028 44.1146 226.677 43.9488 226.305 43.8537L213.728 40.6388C211.668 40.1124 210.794 37.6703 212.052 35.9568L219.735 25.4923C219.962 25.1825 220.128 24.832 220.223 24.4598L223.438 11.8822ZM228.12 50.1291C226.407 48.8711 223.965 49.745 223.438 51.8044L220.223 64.382C220.128 64.7543 219.962 65.1048 219.735 65.4145L212.052 75.8791C210.794 77.5925 211.668 80.0346 213.728 80.561L226.305 83.7759C226.677 83.8711 227.028 84.0368 227.338 84.2642L237.802 91.947C239.516 93.2049 241.958 92.3311 242.484 90.2716L245.699 77.694C245.794 77.3218 245.96 76.9713 246.187 76.6616L253.87 66.197C255.128 64.4835 254.254 62.0414 252.195 61.515L239.617 58.3001C239.245 58.205 238.894 58.0392 238.585 57.8118L228.12 50.1291ZM228.12 90.0513C226.407 88.7934 223.965 89.6672 223.438 91.7266L220.223 104.304C220.128 104.677 219.962 105.027 219.735 105.337L212.052 115.801C210.794 117.515 211.668 119.957 213.728 120.483L226.305 123.698C226.677 123.793 227.028 123.959 227.338 124.186L237.802 131.869C239.516 133.127 241.958 132.253 242.484 130.194L245.699 117.616C245.794 117.244 245.96 116.894 246.187 116.584L253.87 106.119C255.128 104.406 254.254 101.964 252.195 101.437L239.617 98.2224C239.245 98.1272 238.894 97.9614 238.585 97.7341L228.12 90.0513ZM279.539 137.99C279.167 137.895 278.817 137.729 278.507 137.502L268.042 129.819C266.329 128.561 263.887 129.435 263.36 131.494L260.001 144.635L259 146H292.541C293.276 146 293.966 145.65 294.4 145.059C295.367 143.741 294.696 141.864 293.112 141.459L279.539 137.99ZM268.042 89.8967C266.329 88.6387 263.887 89.5126 263.36 91.572L260.145 104.15C260.05 104.522 259.885 104.872 259.657 105.182L251.974 115.647C250.716 117.36 251.59 119.802 253.65 120.329L266.227 123.544C266.6 123.639 266.95 123.804 267.26 124.032L277.724 131.715C279.438 132.973 281.88 132.099 282.406 130.039L285.621 117.462C285.716 117.089 285.882 116.739 286.11 116.429L293.792 105.965C295.05 104.251 294.176 101.809 292.117 101.283L279.539 98.0677C279.167 97.9725 278.817 97.8068 278.507 97.5794L268.042 89.8967ZM263.36 51.6497C263.887 49.5903 266.329 48.7165 268.042 49.9744L278.507 57.6572C278.817 57.8845 279.167 58.0503 279.539 58.1455L292.117 61.3604C294.176 61.8868 295.05 64.3289 293.792 66.0423L286.11 76.5069C285.882 76.8166 285.716 77.1671 285.621 77.5394L282.406 90.117C281.88 92.1764 279.438 93.0503 277.724 91.7923L267.26 84.1096C266.95 83.8822 266.6 83.7164 266.227 83.6213L253.65 80.4064C251.59 79.88 250.716 77.4379 251.974 75.7244L259.657 65.2598C259.885 64.9501 260.05 64.5996 260.145 64.2274L263.36 51.6497ZM307.965 10.0522C306.251 8.79422 303.809 9.66807 303.283 11.7275L300.068 24.3051C299.973 24.6774 299.807 25.0279 299.579 25.3376L291.897 35.8022C290.639 37.5156 291.513 39.9577 293.572 40.4841L306.15 43.699C306.522 43.7942 306.872 43.9599 307.182 44.1873L317.647 51.8701C319.36 53.128 321.802 52.2542 322.329 50.1947L325.544 37.6171C325.639 37.2449 325.804 36.8944 326.032 36.5847L333.715 26.1201C334.973 24.4066 334.099 21.9645 332.039 21.4381L319.462 18.2232C319.089 18.1281 318.739 17.9623 318.429 17.7349L307.965 10.0522ZM319.462 137.99C319.089 137.895 318.739 137.729 318.429 137.502L307.965 129.819C306.251 128.561 303.809 129.435 303.283 131.494L299.961 144.489C299.936 144.586 299.893 144.677 299.834 144.757C299.456 145.273 299.824 146 300.463 146H332.464C333.198 146 333.888 145.65 334.323 145.059C335.29 143.741 334.618 141.864 333.035 141.459L319.462 137.99ZM307.965 89.8967C306.251 88.6387 303.809 89.5126 303.283 91.572L300.068 104.15C299.973 104.522 299.807 104.872 299.579 105.182L291.897 115.647C290.639 117.36 291.513 119.802 293.572 120.329L306.15 123.544C306.522 123.639 306.872 123.804 307.182 124.032L317.647 131.715C319.36 132.973 321.802 132.099 322.329 130.039L325.544 117.462C325.639 117.089 325.804 116.739 326.032 116.429L333.715 105.965C334.973 104.251 334.099 101.809 332.039 101.283L319.462 98.0677C319.089 97.9725 318.739 97.8068 318.429 97.5794L307.965 89.8967ZM303.283 51.6497C303.809 49.5903 306.251 48.7165 307.965 49.9744L318.429 57.6572C318.739 57.8845 319.089 58.0503 319.462 58.1455L332.039 61.3604C334.099 61.8868 334.973 64.3289 333.715 66.0423L326.032 76.5069C325.804 76.8166 325.639 77.1671 325.544 77.5394L322.329 90.117C321.802 92.1764 319.36 93.0503 317.647 91.7923L307.182 84.1096C306.872 83.8822 306.522 83.7164 306.15 83.6213L293.572 80.4064C291.513 79.88 290.639 77.4379 291.897 75.7244L299.579 65.2598C299.807 64.9501 299.973 64.5996 300.068 64.2274L303.283 51.6497ZM347.887 10.0522C346.173 8.79422 343.731 9.66807 343.205 11.7275L339.99 24.3051C339.895 24.6774 339.729 25.0279 339.502 25.3376L331.819 35.8022C330.561 37.5156 331.435 39.9577 333.494 40.4841L346.072 43.699C346.444 43.7942 346.795 43.9599 347.104 44.1873L357.569 51.8701C359.282 53.128 361.724 52.2542 362.251 50.1947L365.466 37.6171C365.561 37.2449 365.727 36.8944 365.954 36.5847L373.637 26.1201C374.895 24.4066 374.021 21.9645 371.961 21.4381L359.384 18.2232C359.012 18.1281 358.661 17.9623 358.351 17.7349L347.887 10.0522ZM359.384 137.99C359.012 137.895 358.661 137.729 358.351 137.502L347.887 129.819C346.173 128.561 343.731 129.435 343.205 131.494L339.883 144.489C339.859 144.586 339.815 144.677 339.756 144.757C339.378 145.273 339.746 146 340.386 146H372.386C373.12 146 373.81 145.65 374.245 145.059C375.212 143.741 374.54 141.864 372.957 141.459L359.384 137.99ZM347.887 89.8967C346.173 88.6387 343.731 89.5126 343.205 91.572L339.99 104.15C339.895 104.522 339.729 104.872 339.502 105.182L331.819 115.647C330.561 117.36 331.435 119.802 333.494 120.329L346.072 123.544C346.444 123.639 346.795 123.804 347.104 124.032L357.569 131.715C359.282 132.973 361.724 132.099 362.251 130.039L365.466 117.462C365.561 117.089 365.727 116.739 365.954 116.429L373.637 105.965C374.895 104.251 374.021 101.809 371.961 101.283L359.384 98.0677C359.012 97.9725 358.661 97.8068 358.351 97.5794L347.887 89.8967ZM343.205 51.6497C343.731 49.5903 346.173 48.7165 347.887 49.9744L358.351 57.6572C358.661 57.8845 359.012 58.0503 359.384 58.1455L371.961 61.3604C374.021 61.8868 374.895 64.3289 373.637 66.0423L365.954 76.5069C365.727 76.8166 365.561 77.1671 365.466 77.5394L362.251 90.117C361.724 92.1764 359.282 93.0503 357.569 91.7923L347.104 84.1096C346.795 83.8822 346.444 83.7164 346.072 83.6213L333.494 80.4064C331.435 79.88 330.561 77.4379 331.819 75.7244L339.502 65.2598C339.729 64.9501 339.895 64.5996 339.99 64.2274L343.205 51.6497ZM387.809 10.0522C386.096 8.79422 383.653 9.66807 383.127 11.7275L379.912 24.3051C379.817 24.6774 379.651 25.0279 379.424 25.3376L371.741 35.8022C370.483 37.5156 371.357 39.9577 373.416 40.4841L385.994 43.699C386.366 43.7942 386.717 43.9599 387.027 44.1873L397.491 51.8701C399.205 53.128 401.647 52.2542 402.173 50.1947L405.388 37.6171C405.483 37.2449 405.649 36.8944 405.876 36.5847L413.559 26.1201C414.817 24.4066 413.943 21.9645 411.884 21.4381L399.306 18.2232C398.934 18.1281 398.583 17.9623 398.274 17.7349L387.809 10.0522Z" fill="#C2DF9B"/>
<path d="M102.599 101.909C101.849 101.47 101.072 101.729 100.863 102.487C100.653 103.245 101.091 104.215 101.84 104.654L102.599 101.909ZM232.39 107.141C232.517 106.34 231.997 105.403 231.23 105.049L218.72 99.2814C217.952 98.9274 217.227 99.29 217.1 100.091C216.973 100.892 217.493 101.829 218.261 102.183L229.38 107.31L227.543 118.915C227.416 119.717 227.936 120.653 228.703 121.007C229.471 121.361 230.196 120.998 230.323 120.197L232.39 107.141ZM101.84 104.654C108.156 108.352 117.567 111.306 128.474 113.454C139.422 115.61 152.016 116.98 164.774 117.433C190.238 118.337 216.587 115.596 231.82 107.979L230.18 105.021C215.413 112.404 189.512 115.163 164.156 114.262C151.503 113.813 139.045 112.455 128.258 110.33C117.43 108.198 108.423 105.32 102.599 101.909L101.84 104.654Z" fill="white"/>
</svg>
