<svg width="24" height="24" viewBox="0 0 24 24" fill="none" xmlns="http://www.w3.org/2000/svg">
<path d="M10.3424 2.45496C11.1354 1.28051 12.8646 1.28051 13.6576 2.45497L16.6196 6.84199C16.7629 7.05428 16.9457 7.23706 17.158 7.38039L21.545 10.3424C22.7195 11.1354 22.7195 12.8646 21.545 13.6576L17.158 16.6196C16.9457 16.7629 16.7629 16.9457 16.6196 17.158L13.6576 21.545C12.8646 22.7195 11.1354 22.7195 10.3424 21.545L7.38039 17.158C7.23706 16.9457 7.05428 16.7629 6.84199 16.6196L2.45496 13.6576C1.28051 12.8646 1.28051 11.1354 2.45497 10.3424L6.84199 7.38039C7.05428 7.23706 7.23706 7.05428 7.38039 6.84199L10.3424 2.45496Z" fill="white"/>
<path d="M11.1712 7.22748C11.5677 6.64025 12.4323 6.64025 12.8288 7.22748L14.3098 9.421C14.3815 9.52714 14.4729 9.61853 14.579 9.6902L16.7725 11.1712C17.3597 11.5677 17.3597 12.4323 16.7725 12.8288L14.579 14.3098C14.4729 14.3815 14.3815 14.4729 14.3098 14.579L12.8288 16.7725C12.4323 17.3597 11.5677 17.3597 11.1712 16.7725L9.6902 14.579C9.61853 14.4729 9.52714 14.3815 9.421 14.3098L7.22748 12.8288C6.64025 12.4323 6.64025 11.5677 7.22748 11.1712L9.421 9.6902C9.52714 9.61853 9.61853 9.52714 9.6902 9.421L11.1712 7.22748Z" fill="#8DC73F"/>
</svg>
