<svg width="480" height="273" viewBox="0 0 480 273" fill="none" xmlns="http://www.w3.org/2000/svg">
<rect width="480" height="273" fill="#A7D26C"/>
<path d="M108.332 129.369C107.854 128.566 106.969 128.197 106.355 128.545C105.741 128.893 105.63 129.827 106.108 130.631L108.332 129.369ZM189.527 135.976C189.568 135.141 188.971 134.25 188.194 133.987L175.533 129.702C174.756 129.439 174.093 129.904 174.052 130.739C174.011 131.575 174.607 132.465 175.384 132.728L186.639 136.537L186.046 148.639C186.005 149.475 186.602 150.365 187.379 150.628C188.156 150.891 188.819 150.427 188.86 149.591L189.527 135.976ZM106.108 130.631C109.663 136.611 115.733 140.601 122.74 143.121C129.784 145.653 138.047 146.804 146.372 146.898C162.986 147.087 180.259 143.069 189.063 136.906L187.178 134.094C178.839 139.931 162.052 143.913 145.696 143.727C137.536 143.634 129.587 142.503 122.943 140.114C116.261 137.711 111.167 134.139 108.332 129.369L106.108 130.631Z" fill="white"/>
<path d="M318.438 181.727C318.965 179.667 321.407 178.793 323.12 180.051L333.585 187.734C333.894 187.961 334.245 188.127 334.617 188.222L347.195 191.437C349.254 191.964 350.128 194.406 348.87 196.119L341.187 206.584C340.96 206.894 340.794 207.244 340.699 207.616L337.484 220.194C336.958 222.253 334.516 223.127 332.802 221.869L322.338 214.186C322.028 213.959 321.677 213.793 321.305 213.698L308.727 210.483C306.668 209.957 305.794 207.515 307.052 205.801L314.735 195.337C314.962 195.027 315.128 194.677 315.223 194.304L318.438 181.727Z" fill="#C2DF9B"/>
<path d="M318.438 141.804C318.965 139.745 321.407 138.871 323.12 140.129L333.585 147.812C333.894 148.039 334.245 148.205 334.617 148.3L347.195 151.515C349.254 152.041 350.128 154.484 348.87 156.197L341.187 166.662C340.96 166.971 340.794 167.322 340.699 167.694L337.484 180.272C336.958 182.331 334.516 183.205 332.802 181.947L322.338 174.264C322.028 174.037 321.677 173.871 321.305 173.776L308.727 170.561C306.668 170.035 305.794 167.593 307.052 165.879L314.735 155.414C314.962 155.105 315.128 154.754 315.223 154.382L318.438 141.804Z" fill="#C2DF9B"/>
<path d="M318.438 101.882C318.965 99.8227 321.407 98.9489 323.12 100.207L333.585 107.89C333.894 108.117 334.245 108.283 334.617 108.378L347.195 111.593C349.254 112.119 350.128 114.561 348.87 116.275L341.187 126.739C340.96 127.049 340.794 127.4 340.699 127.772L337.484 140.349C336.958 142.409 334.516 143.283 332.802 142.025L322.338 134.342C322.028 134.115 321.677 133.949 321.305 133.854L308.727 130.639C306.668 130.112 305.794 127.67 307.052 125.957L314.735 115.492C314.962 115.183 315.128 114.832 315.223 114.46L318.438 101.882Z" fill="#C2DF9B"/>
<path d="M358.36 101.727C358.887 99.6681 361.329 98.7942 363.042 100.052L373.507 107.735C373.817 107.962 374.167 108.128 374.539 108.223L387.117 111.438C389.176 111.965 390.05 114.407 388.792 116.12L381.11 126.585C380.882 126.894 380.716 127.245 380.621 127.617L377.406 140.195C376.88 142.254 374.438 143.128 372.724 141.87L362.26 134.187C361.95 133.96 361.6 133.794 361.227 133.699L348.65 130.484C346.59 129.958 345.716 127.516 346.974 125.802L354.657 115.338C354.885 115.028 355.05 114.677 355.145 114.305L358.36 101.727Z" fill="#C2DF9B"/>
<path d="M358.36 221.494C358.887 219.435 361.329 218.561 363.042 219.819L373.507 227.502C373.817 227.729 374.167 227.895 374.539 227.99L387.117 231.205C389.176 231.731 390.05 234.173 388.792 235.887L381.11 246.351C380.882 246.661 380.716 247.012 380.621 247.384L377.406 259.961C376.88 262.021 374.438 262.895 372.724 261.637L362.26 253.954C361.95 253.727 361.6 253.561 361.227 253.466L348.65 250.251C346.59 249.724 345.716 247.282 346.974 245.569L354.657 235.104C354.885 234.795 355.05 234.444 355.145 234.072L358.36 221.494Z" fill="#C2DF9B"/>
<path d="M358.36 181.572C358.887 179.513 361.329 178.639 363.042 179.897L373.507 187.579C373.817 187.807 374.167 187.973 374.539 188.068L387.117 191.283C389.176 191.809 390.05 194.251 388.792 195.965L381.11 206.429C380.882 206.739 380.716 207.089 380.621 207.462L377.406 220.039C376.88 222.099 374.438 222.973 372.724 221.715L362.26 214.032C361.95 213.804 361.6 213.639 361.227 213.544L348.65 210.329C346.59 209.802 345.716 207.36 346.974 205.647L354.657 195.182C354.885 194.872 355.05 194.522 355.145 194.15L358.36 181.572Z" fill="#C2DF9B"/>
<path d="M358.36 141.65C358.887 139.59 361.329 138.716 363.042 139.974L373.507 147.657C373.817 147.885 374.167 148.05 374.539 148.145L387.117 151.36C389.176 151.887 390.05 154.329 388.792 156.042L381.11 166.507C380.882 166.817 380.716 167.167 380.621 167.539L377.406 180.117C376.88 182.176 374.438 183.05 372.724 181.792L362.26 174.11C361.95 173.882 361.6 173.716 361.227 173.621L348.65 170.406C346.59 169.88 345.716 167.438 346.974 165.724L354.657 155.26C354.885 154.95 355.05 154.6 355.145 154.227L358.36 141.65Z" fill="#C2DF9B"/>
<path d="M398.283 101.727C398.809 99.6681 401.251 98.7942 402.965 100.052L413.429 107.735C413.739 107.962 414.089 108.128 414.462 108.223L427.039 111.438C429.099 111.965 429.973 114.407 428.715 116.12L421.032 126.585C420.804 126.894 420.639 127.245 420.544 127.617L417.329 140.195C416.802 142.254 414.36 143.128 412.647 141.87L402.182 134.187C401.872 133.96 401.522 133.794 401.15 133.699L388.572 130.484C386.513 129.958 385.639 127.516 386.897 125.802L394.579 115.338C394.807 115.028 394.973 114.677 395.068 114.305L398.283 101.727Z" fill="#C2DF9B"/>
<path d="M398.283 221.494C398.809 219.435 401.251 218.561 402.965 219.819L413.429 227.502C413.739 227.729 414.089 227.895 414.462 227.99L427.039 231.205C429.099 231.731 429.973 234.173 428.715 235.887L421.032 246.351C420.804 246.661 420.639 247.012 420.544 247.384L417.329 259.961C416.802 262.021 414.36 262.895 412.647 261.637L402.182 253.954C401.872 253.727 401.522 253.561 401.15 253.466L388.572 250.251C386.513 249.724 385.639 247.282 386.897 245.569L394.579 235.104C394.807 234.795 394.973 234.444 395.068 234.072L398.283 221.494Z" fill="#C2DF9B"/>
<path d="M398.283 181.572C398.809 179.513 401.251 178.639 402.965 179.897L413.429 187.579C413.739 187.807 414.089 187.973 414.462 188.068L427.039 191.283C429.099 191.809 429.973 194.251 428.715 195.965L421.032 206.429C420.804 206.739 420.639 207.089 420.544 207.462L417.329 220.039C416.802 222.099 414.36 222.973 412.647 221.715L402.182 214.032C401.872 213.804 401.522 213.639 401.15 213.544L388.572 210.329C386.513 209.802 385.639 207.36 386.897 205.647L394.579 195.182C394.807 194.872 394.973 194.522 395.068 194.15L398.283 181.572Z" fill="#C2DF9B"/>
<path d="M398.283 141.65C398.809 139.59 401.251 138.716 402.965 139.974L413.429 147.657C413.739 147.885 414.089 148.05 414.462 148.145L427.039 151.36C429.099 151.887 429.973 154.329 428.715 156.042L421.032 166.507C420.804 166.817 420.639 167.167 420.544 167.539L417.329 180.117C416.802 182.176 414.36 183.05 412.647 181.792L402.182 174.11C401.872 173.882 401.522 173.716 401.15 173.621L388.572 170.406C386.513 169.88 385.639 167.438 386.897 165.724L394.579 155.26C394.807 154.95 394.973 154.6 395.068 154.227L398.283 141.65Z" fill="#C2DF9B"/>
<path d="M438.205 101.727C438.731 99.6681 441.173 98.7942 442.887 100.052L453.351 107.735C453.661 107.962 454.012 108.128 454.384 108.223L466.961 111.438C469.021 111.965 469.895 114.407 468.637 116.12L460.954 126.585C460.727 126.894 460.561 127.245 460.466 127.617L457.251 140.195C456.724 142.254 454.282 143.128 452.569 141.87L442.104 134.187C441.795 133.96 441.444 133.794 441.072 133.699L428.494 130.484C426.435 129.958 425.561 127.516 426.819 125.802L434.502 115.338C434.729 115.028 434.895 114.677 434.99 114.305L438.205 101.727Z" fill="#C2DF9B"/>
<path d="M438.205 221.494C438.731 219.435 441.173 218.561 442.887 219.819L453.351 227.502C453.661 227.729 454.012 227.895 454.384 227.99L466.961 231.205C469.021 231.731 469.895 234.173 468.637 235.887L460.954 246.351C460.727 246.661 460.561 247.012 460.466 247.384L457.251 259.961C456.724 262.021 454.282 262.895 452.569 261.637L442.104 253.954C441.795 253.727 441.444 253.561 441.072 253.466L428.494 250.251C426.435 249.724 425.561 247.282 426.819 245.569L434.502 235.104C434.729 234.795 434.895 234.444 434.99 234.072L438.205 221.494Z" fill="#C2DF9B"/>
<path d="M438.205 181.572C438.731 179.513 441.173 178.639 442.887 179.897L453.351 187.579C453.661 187.807 454.012 187.973 454.384 188.068L466.961 191.283C469.021 191.809 469.895 194.251 468.637 195.965L460.954 206.429C460.727 206.739 460.561 207.089 460.466 207.462L457.251 220.039C456.724 222.099 454.282 222.973 452.569 221.715L442.104 214.032C441.795 213.804 441.444 213.639 441.072 213.544L428.494 210.329C426.435 209.802 425.561 207.36 426.819 205.647L434.502 195.182C434.729 194.872 434.895 194.522 434.99 194.15L438.205 181.572Z" fill="#C2DF9B"/>
<path d="M438.205 141.65C438.731 139.59 441.173 138.716 442.887 139.974L453.351 147.657C453.661 147.885 454.012 148.05 454.384 148.145L466.961 151.36C469.021 151.887 469.895 154.329 468.637 156.042L460.954 166.507C460.727 166.817 460.561 167.167 460.466 167.539L457.251 180.117C456.724 182.176 454.282 183.05 452.569 181.792L442.104 174.11C441.795 173.882 441.444 173.716 441.072 173.621L428.494 170.406C426.435 169.88 425.561 167.438 426.819 165.724L434.502 155.26C434.729 154.95 434.895 154.6 434.99 154.227L438.205 141.65Z" fill="#C2DF9B"/>
<path d="M478.127 101.727C478.653 99.6681 481.096 98.7942 482.809 100.052L493.274 107.735C493.583 107.962 493.934 108.128 494.306 108.223L506.884 111.438C508.943 111.965 509.817 114.407 508.559 116.12L500.876 126.585C500.649 126.894 500.483 127.245 500.388 127.617L497.173 140.195C496.647 142.254 494.205 143.128 492.491 141.87L482.027 134.187C481.717 133.96 481.366 133.794 480.994 133.699L468.416 130.484C466.357 129.958 465.483 127.516 466.741 125.802L474.424 115.338C474.651 115.028 474.817 114.677 474.912 114.305L478.127 101.727Z" fill="#C2DF9B"/>
</svg>
