<svg width="24" height="24" viewBox="0 0 24 24" fill="none" xmlns="http://www.w3.org/2000/svg">
<g clip-path="url(#clip0_347_8697)">
<path d="M13.204 7.43588L6.961 1.19293C5.37054 -0.397528 2.7833 -0.397106 1.19284 1.19293C-0.397614 2.78296 -0.397614 5.37025 1.19284 6.96066L7.43621 13.204C8.23102 13.9988 9.27548 14.3965 10.3199 14.3965C11.3643 14.3965 12.4088 13.9989 13.204 13.2037C14.7944 11.6136 14.7944 9.02629 13.204 7.43588ZM12.6379 12.638C11.3599 13.916 9.28026 13.916 8.00143 12.638L1.75848 6.39503C0.480066 5.11662 0.480066 3.03655 1.75848 1.7581C2.39771 1.11929 3.23733 0.79965 4.07694 0.79965C4.91656 0.79965 5.75581 1.11887 6.39541 1.7581L12.638 8.00147C13.9164 9.2795 13.9164 11.3596 12.6379 12.638Z" fill="black"/>
<path d="M12.0725 8.5674L10.7508 7.24577C10.7137 7.20858 10.6696 7.17907 10.6211 7.15894C10.5726 7.13881 10.5206 7.12845 10.468 7.12845C10.4155 7.12845 10.3635 7.13881 10.3149 7.15894C10.2664 7.17907 10.2223 7.20858 10.1852 7.24577C10.148 7.28288 10.1185 7.32696 10.0984 7.37549C10.0782 7.42402 10.0679 7.47605 10.0679 7.52859C10.0679 7.58112 10.0782 7.63315 10.0984 7.68168C10.1185 7.73021 10.148 7.77429 10.1852 7.8114L11.5068 9.13303C12.0897 9.71583 12.1636 10.6951 11.6756 11.3623C11.5452 11.5403 11.584 11.7907 11.7624 11.9211C11.8306 11.9715 11.9132 11.9986 11.998 11.9983C12.061 11.9984 12.1231 11.9837 12.1792 11.9553C12.2354 11.9268 12.284 11.8855 12.3212 11.8347C13.0365 10.8571 12.9273 9.42183 12.0725 8.5674ZM4.21103 6.58535L2.88978 5.26372C2.57295 4.94652 2.39815 4.5253 2.39815 4.0769C2.39815 3.65887 2.50414 3.31167 2.71296 3.04486C2.7454 3.00353 2.76936 2.95621 2.7835 2.90561C2.79763 2.85501 2.80166 2.80212 2.79534 2.74997C2.78902 2.69781 2.77249 2.64741 2.74669 2.60165C2.72088 2.55588 2.68631 2.51565 2.64495 2.48326C2.47133 2.34685 2.21975 2.37727 2.08334 2.55127C1.76132 2.96166 1.59814 3.47531 1.59814 4.07653C1.59814 4.73854 1.85614 5.36094 2.32419 5.82898L3.64582 7.15103C3.68292 7.18823 3.72699 7.21772 3.77553 7.23783C3.82405 7.25794 3.87608 7.26827 3.92861 7.26822C3.98108 7.26823 4.03304 7.25788 4.0815 7.23778C4.12996 7.21767 4.17398 7.18819 4.21103 7.15103C4.36745 6.99499 4.36745 6.74177 4.21103 6.58535ZM23.8643 11.7115C23.5928 10.6975 22.9423 9.84989 22.0331 9.32503C21.1239 8.80022 20.0646 8.66063 19.0502 8.9326C18.0362 9.20419 17.1886 9.85462 16.6637 10.7638L12.4272 18.102C11.9024 19.0113 11.7628 20.0709 12.0348 21.0849C12.3064 22.0989 12.9568 22.9465 13.866 23.4714C14.4717 23.821 15.1436 23.9998 15.8249 23.9998C16.1661 23.9998 16.5097 23.9546 16.8485 23.8638C17.8626 23.5922 18.7102 22.9418 19.235 22.0326L23.4719 14.6944C23.9968 13.7852 24.1364 12.7255 23.8643 11.7115ZM22.7783 14.2944L18.5418 21.6325C18.1242 22.3566 17.4489 22.8746 16.6413 23.091C15.8333 23.3078 14.9897 23.1962 14.2657 22.7782C13.5417 22.3606 13.0236 21.6854 12.8072 20.8778C12.5908 20.0697 12.702 19.2265 13.12 18.5021L17.3569 11.1639C17.7745 10.4399 18.4498 9.92189 19.2574 9.70547C19.5232 9.63388 19.7973 9.59757 20.0726 9.59747C20.615 9.59747 21.1506 9.73987 21.6326 10.0183C22.3567 10.4359 22.8747 11.1111 23.0911 11.9187C23.3075 12.7267 23.1963 13.57 22.7783 14.2944Z" fill="black"/>
<path d="M19.0297 18.8715C18.8492 18.7443 18.5993 18.7875 18.472 18.9675L17.1564 20.8327C16.8836 21.3055 16.3748 21.5987 15.828 21.5987C15.7219 21.5988 15.6202 21.6409 15.5452 21.7159C15.4702 21.791 15.428 21.8927 15.428 21.9988C15.428 22.1048 15.4702 22.2066 15.5452 22.2816C15.6202 22.3566 15.7219 22.3988 15.828 22.3988C16.6596 22.3988 17.434 21.952 17.8301 21.2632L19.1257 19.4291C19.1868 19.3424 19.211 19.235 19.193 19.1304C19.175 19.0259 19.1163 18.9328 19.0297 18.8715ZM19.9989 10.3985C19.1877 10.3985 18.4773 10.8233 18.0609 11.5457L16.8636 13.3797C16.8349 13.4237 16.8151 13.4729 16.8054 13.5246C16.7957 13.5762 16.7963 13.6292 16.8071 13.6807C16.8179 13.7321 16.8387 13.7809 16.8684 13.8242C16.8981 13.8676 16.936 13.9046 16.98 13.9333C17.0447 13.9761 17.1205 13.9987 17.198 13.9985C17.2647 13.9986 17.3303 13.982 17.3889 13.9504C17.4476 13.9188 17.4975 13.873 17.534 13.8173L18.7425 11.9645C19.0277 11.4704 19.4737 11.1984 19.9989 11.1984C20.2197 11.1984 20.3989 11.0192 20.3989 10.7984C20.3989 10.5776 20.2197 10.3985 19.9989 10.3985ZM20.9969 17.6514L15.3967 14.4513C15.2051 14.3417 14.9607 14.4085 14.8511 14.6001C14.7415 14.7917 14.8083 15.0361 14.9999 15.1457L20.6001 18.3458C20.6603 18.3805 20.7286 18.3987 20.7981 18.3986C20.8687 18.3987 20.938 18.3802 20.9991 18.3447C21.0602 18.3093 21.1107 18.2583 21.1457 18.197C21.2553 18.0055 21.1885 17.761 20.9969 17.6514ZM9.881 4.51551C9.84389 4.47832 9.79981 4.44882 9.75128 4.42869C9.70275 4.40856 9.65073 4.39819 9.59819 4.39819C9.54565 4.39819 9.49362 4.40856 9.44509 4.42869C9.39656 4.44882 9.35248 4.47832 9.31537 4.51551L4.51526 9.31561C4.47808 9.35273 4.44857 9.39681 4.42844 9.44534C4.40831 9.49387 4.39795 9.54589 4.39795 9.59843C4.39795 9.65097 4.40831 9.70299 4.42844 9.75152C4.44857 9.80005 4.47808 9.84414 4.51526 9.88125C4.55236 9.91844 4.59644 9.94794 4.64497 9.96805C4.6935 9.98816 4.74553 9.99849 4.79806 9.99844C4.85059 9.99849 4.90262 9.98816 4.95115 9.96805C4.99968 9.94794 5.04376 9.91844 5.08085 9.88125L9.88096 5.08115C9.91815 5.04404 9.94767 4.99996 9.96781 4.95143C9.98794 4.9029 9.99831 4.85088 9.99832 4.79834C9.99832 4.7458 9.98796 4.69377 9.96783 4.64524C9.9477 4.59671 9.9182 4.55262 9.881 4.51551Z" fill="black"/>
</g>
<defs>
<clipPath id="clip0_347_8697">
<rect width="24" height="24" fill="white"/>
</clipPath>
</defs>
</svg>
