<svg width="30" height="30" viewBox="0 0 30 30" fill="none" xmlns="http://www.w3.org/2000/svg">
<path d="M27.5 10C27.5 5 25 2.5 20 2.5H10C5 2.5 2.5 5 2.5 10V26.25C2.5 26.9375 3.0625 27.5 3.75 27.5H20C25 27.5 27.5 25 27.5 20V15" stroke="white" stroke-width="1.5" stroke-linecap="round" stroke-linejoin="round"/>
<path d="M19.387 14.675L20.1995 13.8625C20.2495 13.8125 20.2995 13.7625 20.3495 13.7C21.362 12.625 21.762 11.3625 20.1995 9.79996C18.5495 8.14996 17.2495 8.68746 16.137 9.79996L9.64949 16.2875C9.39949 16.5375 9.162 17.025 9.112 17.375L8.76201 19.85C8.63701 20.75 9.262 21.375 10.162 21.25L12.637 20.9C12.987 20.85 13.4745 20.6125 13.7245 20.3625L16.1495 17.9375" stroke="white" stroke-width="1.5" stroke-miterlimit="10" stroke-linecap="round" stroke-linejoin="round"/>
<path d="M15.2129 10.7249C15.7629 12.6874 17.3004 14.2374 19.2754 14.7874" stroke="white" stroke-width="1.5" stroke-miterlimit="10" stroke-linecap="round" stroke-linejoin="round"/>
</svg>
