<svg width="24" height="24" viewBox="0 0 24 24" fill="none" xmlns="http://www.w3.org/2000/svg">
<g clip-path="url(#clip0_347_10209)">
<path d="M23.9054 17.844C23.6224 16.9562 22.7909 16.4169 22.1433 16.1208C20.8128 15.5125 19.3536 14.2189 18.0485 12.7415L18.2432 12.622C18.3222 12.5719 18.3783 12.4927 18.3994 12.4015C18.4205 12.3104 18.4048 12.2146 18.3559 12.1349C18.3069 12.0551 18.2286 11.9979 18.1377 11.9754C18.0469 11.953 17.9509 11.9672 17.8705 12.015L17.5787 12.1942C17.4088 11.9904 17.2419 11.7842 17.0781 11.5754L17.3679 11.3871C17.4071 11.3617 17.4409 11.3287 17.4674 11.2901C17.4938 11.2516 17.5125 11.2082 17.5222 11.1625C17.5319 11.1167 17.5325 11.0695 17.5239 11.0235C17.5154 10.9775 17.4979 10.9337 17.4724 10.8945C17.4469 10.8553 17.4139 10.8215 17.3754 10.795C17.3368 10.7685 17.2934 10.7499 17.2477 10.7402C17.2019 10.7305 17.1547 10.7299 17.1087 10.7384C17.0628 10.7469 17.0189 10.7645 16.9797 10.79L16.6445 11.0078C16.4599 10.7593 16.2796 10.5075 16.1037 10.2526L16.3525 10.0981C16.3922 10.0735 16.4267 10.0412 16.454 10.0032C16.4813 9.9652 16.5008 9.9222 16.5114 9.87666C16.522 9.83112 16.5236 9.78392 16.516 9.73778C16.5084 9.69163 16.4918 9.64744 16.4671 9.60772C16.4424 9.56798 16.4101 9.53349 16.3721 9.50623C16.3341 9.47896 16.2911 9.45945 16.2456 9.44881C16.2 9.43817 16.1528 9.43661 16.1067 9.44422C16.0605 9.45183 16.0163 9.46846 15.9766 9.49316L15.7077 9.66027C15.2383 8.93516 14.8494 8.24605 14.5734 7.6498C14.5335 7.54283 14.1938 6.56183 14.8711 5.88458C14.9041 5.85151 14.9304 5.81225 14.9483 5.76904C14.9662 5.72584 14.9754 5.67952 14.9754 5.63276C14.9754 5.58599 14.9662 5.53968 14.9483 5.49648C14.9303 5.45327 14.9041 5.41402 14.871 5.38095C14.838 5.34788 14.7987 5.32165 14.7555 5.30376C14.7123 5.28586 14.666 5.27665 14.6192 5.27665C14.5725 5.27665 14.5261 5.28586 14.4829 5.30376C14.4397 5.32165 14.4005 5.34788 14.3674 5.38095C13.6373 6.11108 13.6988 7.0415 13.8077 7.54991C13.382 7.67075 12.5813 7.87124 11.6819 7.96124C9.54823 8.17489 8.49964 7.61924 7.99597 7.11552C6.16583 5.28542 6.04714 3.46166 6.0462 3.44469C6.04279 3.37179 6.01707 3.30171 5.97251 3.24391C5.92796 3.18612 5.86673 3.14341 5.7971 3.12156C5.72747 3.09971 5.65281 3.09978 5.58323 3.12176C5.51364 3.14374 5.45249 3.18656 5.40804 3.24444L0.0737158 10.1889C0.0437395 10.2279 0.0221744 10.2727 0.0103807 10.3205C-0.001413 10.3683 -0.0031792 10.418 0.0051935 10.4664C0.0135662 10.5149 0.0318961 10.5612 0.0590268 10.6022C0.0861575 10.6432 0.1215 10.6782 0.162825 10.7049C0.262481 10.7694 10.1633 17.1687 12.9534 18.8627C15.2242 20.2414 18.3104 20.8948 20.6734 20.8947C21.3869 20.8947 22.0348 20.8351 22.574 20.7178C22.6626 20.6986 22.7405 20.6463 22.7919 20.5716L23.8989 18.9613C23.8997 18.9602 23.9002 18.9589 23.901 18.9577C23.9096 18.9449 23.9173 18.9316 23.9242 18.9178C23.9255 18.9152 23.9266 18.9126 23.9278 18.91C23.9339 18.897 23.9392 18.8836 23.9437 18.8698C23.9442 18.8685 23.9449 18.8672 23.9453 18.8658L23.9466 18.8614L23.948 18.8569C23.97 18.7821 24.0743 18.3735 23.9054 17.844ZM8.51754 13.754C11.2426 15.4961 13.1075 16.6731 14.0606 17.2523C16.3314 18.6311 19.4176 19.2844 21.7805 19.2844C22.1565 19.2844 22.5136 19.2673 22.8468 19.2345L22.2863 20.0498C21.1768 20.2625 19.6512 20.225 18.0694 19.9438C16.2795 19.6256 14.5939 19.0254 13.3231 18.2539C10.8282 16.7392 2.61308 11.4395 0.873872 10.3164L1.63231 9.32905C3.53411 10.5567 5.4379 11.7813 7.34365 13.0028C7.38302 13.028 7.42697 13.0453 7.47301 13.0536C7.51905 13.0618 7.56626 13.0609 7.61195 13.0509C7.65764 13.0409 7.70091 13.022 7.73928 12.9952C7.77765 12.9685 7.81036 12.9344 7.83556 12.895C7.8608 12.8556 7.87804 12.8117 7.88628 12.7657C7.89453 12.7196 7.89363 12.6724 7.88362 12.6267C7.87362 12.581 7.85471 12.5378 7.82798 12.4994C7.80125 12.461 7.76723 12.4283 7.72784 12.4031C7.04883 11.9679 6.37011 11.5324 5.69168 11.0963C6.06443 10.4099 6.26023 9.64095 6.26023 8.85172C6.26023 7.75686 5.87618 6.69036 5.17892 5.84867C5.11818 5.77753 5.03189 5.73313 4.9387 5.72508C4.8455 5.71703 4.75288 5.74597 4.68084 5.80565C4.6088 5.86532 4.56314 5.95094 4.5537 6.04401C4.54427 6.13708 4.57183 6.23012 4.63043 6.30303C5.22214 7.01722 5.54801 7.92238 5.54801 8.85167C5.54801 9.50384 5.39028 10.1393 5.09037 10.7097C4.08227 10.0614 3.07468 9.41221 2.06759 8.76228L5.48778 4.30958C5.70556 5.10228 6.23047 6.35727 7.4922 7.619C9.30368 9.43048 12.9718 8.53789 14.0572 8.22045C14.3337 8.77878 14.6919 9.39688 15.105 10.0345L13.8951 10.7861C13.8554 10.8108 13.8209 10.843 13.7936 10.881C13.7664 10.919 13.7468 10.962 13.7362 11.0076C13.7256 11.0531 13.724 11.1003 13.7316 11.1465C13.7392 11.1926 13.7558 11.2368 13.7805 11.2765C13.8052 11.3163 13.8374 11.3508 13.8754 11.3781C13.9134 11.4054 13.9564 11.4249 14.002 11.4355C14.0476 11.4462 14.0948 11.4477 14.1409 11.4401C14.1871 11.4325 14.2313 11.4158 14.271 11.3911L15.5009 10.6271C15.6792 10.8861 15.8619 11.1421 16.049 11.395L15.0874 12.02C15.0095 12.072 14.9552 12.1526 14.9364 12.2444C14.9175 12.3362 14.9355 12.4317 14.9866 12.5102C15.0377 12.5888 15.1176 12.6441 15.2091 12.6641C15.3007 12.6841 15.3964 12.6672 15.4756 12.6171L16.4807 11.9638C16.6399 12.1681 16.802 12.3701 16.9669 12.5698L16.0728 13.1189C15.9938 13.169 15.9377 13.2482 15.9166 13.3393C15.8955 13.4305 15.9111 13.5263 15.9601 13.606C16.0091 13.6857 16.0874 13.743 16.1782 13.7654C16.2691 13.7878 16.3651 13.7736 16.4455 13.7258L17.4336 13.1191C19.3817 15.3517 20.9009 16.336 21.8472 16.7685C23.1369 17.3582 23.294 18.1085 23.2888 18.4583C22.189 18.6493 20.7093 18.6059 19.1765 18.3334C17.3867 18.0152 15.7011 17.415 14.4304 16.6436C13.482 16.0672 11.6217 14.8931 8.90117 13.1539C8.86177 13.1287 8.81779 13.1115 8.77175 13.1033C8.72571 13.0951 8.67851 13.0961 8.63284 13.1061C8.58717 13.1162 8.54392 13.1351 8.50557 13.1619C8.46723 13.1887 8.43452 13.2227 8.40933 13.2621C8.38414 13.3015 8.36696 13.3455 8.35877 13.3915C8.35057 13.4376 8.35153 13.4848 8.36158 13.5304C8.37162 13.5761 8.39057 13.6194 8.41733 13.6577C8.44409 13.6961 8.47814 13.7288 8.51754 13.754Z" fill="black"/>
</g>
<defs>
<clipPath id="clip0_347_10209">
<rect width="24" height="24" fill="white"/>
</clipPath>
</defs>
</svg>
