<svg width="24" height="24" viewBox="0 0 24 24" fill="none" xmlns="http://www.w3.org/2000/svg">
<g clip-path="url(#clip0_347_8738)">
<path d="M8.24561 11.2501C9.89982 11.2501 11.2456 10.1566 11.2456 8.8126C11.2456 8.71315 11.2061 8.61776 11.1358 8.54744C11.0654 8.47711 10.9701 8.4376 10.8706 8.4376C10.7711 8.4376 10.6758 8.47711 10.6054 8.54744C10.5351 8.61776 10.4956 8.71315 10.4956 8.8126C10.4956 9.64726 9.68331 10.3419 8.62061 10.4762V9.28604C8.66027 9.26626 8.69833 9.24339 8.73442 9.21765L9.37084 8.76348C9.48763 8.67872 9.58254 8.56736 9.6477 8.43861C9.71287 8.30986 9.74641 8.16743 9.74556 8.02313C9.74556 7.52804 9.35818 7.12524 8.88203 7.12524H7.60914C7.13298 7.12524 6.74561 7.52804 6.74561 8.02313C6.74475 8.16743 6.7783 8.30986 6.84346 8.43861C6.90863 8.56736 7.00354 8.67872 7.12032 8.76348L7.75675 9.21765C7.79284 9.24341 7.83091 9.26627 7.87061 9.28604V10.4762C6.8079 10.3419 5.99561 9.64726 5.99561 8.8126C5.99561 8.71315 5.9561 8.61776 5.88577 8.54744C5.81544 8.47711 5.72006 8.4376 5.62061 8.4376C5.52115 8.4376 5.42577 8.47711 5.35544 8.54744C5.28511 8.61776 5.24561 8.71315 5.24561 8.8126C5.24561 10.1566 6.59139 11.2501 8.24561 11.2501ZM7.55607 8.15288C7.53659 8.13743 7.52099 8.11764 7.51051 8.09509C7.50003 8.07254 7.49496 8.04785 7.4957 8.02299C7.4957 7.94284 7.54773 7.8751 7.60923 7.8751H8.88217C8.94371 7.8751 8.9957 7.94284 8.9957 8.02299C8.99643 8.04785 8.99135 8.07254 8.98086 8.09509C8.97037 8.11764 8.95476 8.13743 8.93528 8.15288L8.29886 8.60701C8.28361 8.61875 8.26492 8.62512 8.24568 8.62512C8.22644 8.62512 8.20774 8.61875 8.1925 8.60701L7.55607 8.15288Z" fill="black"/>
<path d="M10.4956 7.125C10.7027 7.125 10.8706 6.95711 10.8706 6.75C10.8706 6.54289 10.7027 6.375 10.4956 6.375C10.2885 6.375 10.1206 6.54289 10.1206 6.75C10.1206 6.95711 10.2885 7.125 10.4956 7.125Z" fill="black"/>
<path d="M5.99561 7.125C6.20271 7.125 6.37061 6.95711 6.37061 6.75C6.37061 6.54289 6.20271 6.375 5.99561 6.375C5.7885 6.375 5.62061 6.54289 5.62061 6.75C5.62061 6.95711 5.7885 7.125 5.99561 7.125Z" fill="black"/>
<path d="M18 14.625C18.2967 14.625 18.5867 14.537 18.8334 14.3722C19.08 14.2074 19.2723 13.9731 19.3858 13.699C19.4994 13.4249 19.5291 13.1233 19.4712 12.8324C19.4133 12.5414 19.2704 12.2741 19.0607 12.0643C18.8509 11.8546 18.5836 11.7117 18.2926 11.6538C18.0017 11.5959 17.7001 11.6256 17.426 11.7392C17.1519 11.8527 16.9176 12.045 16.7528 12.2916C16.588 12.5383 16.5 12.8283 16.5 13.125C16.5004 13.5227 16.6586 13.904 16.9398 14.1852C17.221 14.4664 17.6023 14.6246 18 14.625ZM18 12.375C18.1483 12.375 18.2933 12.419 18.4167 12.5014C18.54 12.5838 18.6361 12.7009 18.6929 12.838C18.7497 12.975 18.7645 13.1258 18.7356 13.2713C18.7067 13.4168 18.6352 13.5504 18.5303 13.6553C18.4254 13.7602 18.2918 13.8317 18.1463 13.8606C18.0008 13.8895 17.85 13.8747 17.713 13.8179C17.5759 13.7611 17.4588 13.665 17.3764 13.5417C17.294 13.4183 17.25 13.2733 17.25 13.125C17.2502 12.9262 17.3293 12.7355 17.4699 12.5949C17.6105 12.4543 17.8012 12.3752 18 12.375Z" fill="black"/>
<path d="M23.25 15.3751H21V10.5001C21 10.4232 20.9763 10.3481 20.932 10.2852L18.307 6.5352C18.2724 6.4858 18.2264 6.44547 18.173 6.41762C18.1195 6.38978 18.0601 6.37524 17.9998 6.37524C17.9395 6.37524 17.8801 6.38978 17.8266 6.41762C17.7731 6.44547 17.7271 6.4858 17.6926 6.5352L15.0676 10.2852C15.0234 10.3482 14.9998 10.4232 15 10.5001V12.8468C14.4864 12.1564 13.8013 11.5836 12.9554 11.1418C13.7906 10.16 14.2457 8.88439 14.2457 7.50012C14.2477 6.88847 14.1549 6.28019 13.9707 5.69693C14.336 5.50414 14.6506 5.22788 14.889 4.8906C15.1274 4.55333 15.2828 4.16457 15.3426 3.75592C15.4025 3.34727 15.3651 2.93026 15.2334 2.53879C15.1018 2.14732 14.8796 1.79243 14.585 1.50299C14.2904 1.21354 13.9316 0.997691 13.5379 0.872992C13.1442 0.748294 12.7266 0.718262 12.319 0.785339C11.9115 0.852416 11.5256 1.01471 11.1926 1.25902C10.8596 1.50334 10.5889 1.82278 10.4026 2.19139C9.70408 1.97616 8.97665 1.86949 8.24574 1.87512C7.51488 1.86949 6.78749 1.97618 6.08902 2.19143C5.90272 1.82283 5.63207 1.50338 5.29908 1.25906C4.96608 1.01474 4.58013 0.852443 4.1726 0.785361C3.76507 0.718279 3.34747 0.748305 2.95373 0.872998C2.55999 0.997692 2.20123 1.21353 1.90661 1.50298C1.61199 1.79242 1.38982 2.1473 1.25817 2.53877C1.12652 2.93024 1.0891 3.34725 1.14895 3.7559C1.2088 4.16455 1.36424 4.55332 1.60262 4.89059C1.841 5.22787 2.1556 5.50413 2.52085 5.69693C2.33661 6.28019 2.2438 6.88846 2.24574 7.50012C2.24574 8.88439 2.70108 10.1601 3.53616 11.1418C1.71047 12.0953 0.634037 13.6592 0.413209 15.6952C0.41274 15.6999 0.412271 15.7046 0.411943 15.7092L0.375896 16.224C0.374701 16.2409 0.374701 16.2579 0.375896 16.2748C0.40588 16.7138 0.563634 17.1344 0.829717 17.4848C1.0958 17.8352 1.45859 18.1 1.87337 18.2468C1.62595 18.7538 1.4982 19.3109 1.49996 19.8751C1.49996 21.7361 2.84574 23.2501 4.49996 23.2501C5.39058 23.2501 6.19135 22.8108 6.74129 22.1152C7.20403 22.3678 7.72277 22.5001 8.24996 22.5001C8.77714 22.5001 9.29589 22.3678 9.75863 22.1152C10.3086 22.8108 11.1093 23.2501 12 23.2501C13.1754 23.2501 14.1945 22.4853 14.6863 21.3751H23.25C23.3494 21.3751 23.4448 21.3356 23.5151 21.2653C23.5854 21.195 23.625 21.0996 23.625 21.0001V15.7501C23.625 15.6507 23.5854 15.5553 23.5151 15.485C23.4448 15.4146 23.3494 15.3751 23.25 15.3751ZM18 7.40403L19.9047 10.1251H16.0952L18 7.40403ZM15.75 10.8751H20.25V15.3751H16.0351C15.976 14.9919 15.8805 14.6152 15.75 14.2501V10.8751ZM14.6253 18.2442C14.9786 18.1173 15.2949 17.9046 15.5456 17.6251H16.125V19.1251H14.9243C14.863 18.8198 14.7625 18.5237 14.6253 18.2442ZM15.3318 15.7692L15.3656 16.2498C15.3386 16.5672 15.2115 16.8678 15.0025 17.1083C14.7936 17.3487 14.5136 17.5166 14.2031 17.5876C13.733 17.015 13.0893 16.6261 12.367 16.5265C12.2987 15.0012 11.7846 13.5938 10.9446 12.6085C11.4742 12.3848 11.9653 12.0791 12.3999 11.7027C14.1177 12.5255 15.1298 13.9263 15.3318 15.7689V15.7692ZM12.7457 1.50012C13.1578 1.49999 13.5584 1.63558 13.8856 1.88593C14.2129 2.13628 14.4485 2.48746 14.5562 2.88517C14.6639 3.28288 14.6375 3.70499 14.4813 4.08623C14.325 4.46748 14.0475 4.78664 13.6917 4.99437C13.4299 4.44582 13.0746 3.94706 12.6417 3.52043C12.195 3.08227 11.6758 2.72472 11.1071 2.46359C11.2699 2.17182 11.5076 1.92874 11.7956 1.75939C12.0837 1.59004 12.4116 1.50054 12.7457 1.50012ZM1.87074 3.37512C1.87063 2.95972 2.00847 2.55604 2.26261 2.22746C2.51676 1.89888 2.87283 1.664 3.27492 1.55969C3.67701 1.45538 4.10236 1.48755 4.48419 1.65115C4.86601 1.81475 5.1827 2.10052 5.38454 2.46359C4.81588 2.72469 4.2967 3.08225 3.84999 3.52043C3.41706 3.94703 3.06174 4.44578 2.79999 4.99432C2.51745 4.82879 2.28307 4.59229 2.12007 4.30828C1.95708 4.02426 1.87113 3.70258 1.87074 3.37512ZM4.37588 4.05518C5.32726 3.11965 6.66558 2.62512 8.24574 2.62512C9.8259 2.62512 11.1642 3.11965 12.1156 4.05523C13.0056 4.93039 13.4957 6.15378 13.4957 7.50012C13.4957 8.84647 13.0056 10.0699 12.1156 10.945C11.1642 11.8806 9.82604 12.3751 8.24574 12.3751C6.66544 12.3751 5.32726 11.8806 4.37588 10.9451C3.48587 10.0699 2.99574 8.84647 2.99574 7.50012C2.99574 6.15378 3.48587 4.93039 4.37588 4.05518ZM1.12594 16.2497L1.1596 15.769C1.36168 13.9263 2.37366 12.5255 4.09149 11.7026C4.52802 12.0806 5.02152 12.3873 5.55376 12.6113C4.71624 13.5969 4.20155 15.0084 4.13288 16.5263C3.40993 16.626 2.76558 17.0157 2.29547 17.589C1.9834 17.5192 1.70173 17.3517 1.49139 17.1109C1.28106 16.87 1.15304 16.5683 1.12594 16.2497ZM4.49996 22.5001C3.25927 22.5001 2.24996 21.3226 2.24996 19.8751C2.24996 18.4277 3.25927 17.2501 4.49996 17.2501C5.74065 17.2501 6.74996 18.4277 6.74996 19.8751C6.74996 21.3226 5.74065 22.5001 4.49996 22.5001ZM8.24996 21.7501C7.86346 21.7488 7.48287 21.6551 7.13996 21.4768C7.37869 20.9767 7.50173 20.4293 7.49996 19.8751C7.49996 18.1605 6.35729 16.7415 4.88377 16.5287C4.95587 15.0662 5.48129 13.7293 6.32499 12.8783C6.95135 13.0459 7.59734 13.129 8.24574 13.1251C8.89633 13.129 9.54449 13.0455 10.1728 12.8767C11.0192 13.7275 11.5446 15.0591 11.6163 16.5288C10.1427 16.7414 8.99996 18.1604 8.99996 19.8751C8.99819 20.4293 9.12123 20.9767 9.35996 21.4768C9.01705 21.6551 8.63646 21.7488 8.24996 21.7501ZM12 22.5001C10.7593 22.5001 9.74996 21.3226 9.74996 19.8751C9.74996 18.4277 10.7593 17.2501 12 17.2501C13.2406 17.2501 14.25 18.4277 14.25 19.8751C14.25 21.3226 13.2406 22.5001 12 22.5001ZM15 19.8751H16.5C16.5994 19.8751 16.6948 19.8356 16.7651 19.7653C16.8354 19.695 16.875 19.5996 16.875 19.5001V17.2501C16.875 17.1507 16.8354 17.0553 16.7651 16.985C16.6948 16.9146 16.5994 16.8751 16.5 16.8751H15.9917C16.0604 16.6817 16.1022 16.4797 16.1157 16.2748C16.1169 16.2579 16.1169 16.2409 16.1157 16.224L16.1088 16.1251H17.625V20.6251H14.9243C14.9745 20.3783 14.9999 20.127 15 19.8751ZM22.875 20.6251H18.375V16.1251H22.875V20.6251Z" fill="black"/>
<path d="M19.5 19.8752H21.75C21.8139 19.8752 21.8768 19.8589 21.9326 19.8277C21.9884 19.7966 22.0354 19.7517 22.069 19.6974C22.1026 19.643 22.1217 19.5809 22.1246 19.5171C22.1275 19.4532 22.114 19.3897 22.0854 19.3325L20.9604 17.0825C20.9292 17.0202 20.8814 16.9678 20.8221 16.9312C20.7629 16.8946 20.6946 16.8752 20.625 16.8752C20.5554 16.8752 20.4871 16.8946 20.4279 16.9312C20.3686 16.9678 20.3207 17.0202 20.2896 17.0825L19.1646 19.3325C19.136 19.3897 19.1225 19.4532 19.1254 19.5171C19.1282 19.5809 19.1474 19.643 19.181 19.6974C19.2146 19.7517 19.2615 19.7966 19.3174 19.8277C19.3732 19.8589 19.4361 19.8752 19.5 19.8752ZM20.625 18.0888L21.1432 19.1252H20.1067L20.625 18.0888Z" fill="black"/>
</g>
<defs>
<clipPath id="clip0_347_8738">
<rect width="24" height="24" fill="white"/>
</clipPath>
</defs>
</svg>
