<svg width="40" height="40" viewBox="0 0 40 40" fill="none" xmlns="http://www.w3.org/2000/svg">
<path d="M24.9999 3.33325V19.9999C24.9999 21.8333 23.4999 23.3333 21.6666 23.3333H3.33325V9.99992C3.33325 6.31659 6.31659 3.33325 9.99992 3.33325H24.9999Z" stroke="#8DC73F" stroke-width="1.5" stroke-linecap="round" stroke-linejoin="round"/>
<path d="M36.6666 23.3333V28.3333C36.6666 31.0999 34.4333 33.3333 31.6666 33.3333H29.9999C29.9999 31.4999 28.4999 29.9999 26.6666 29.9999C24.8333 29.9999 23.3333 31.4999 23.3333 33.3333H16.6666C16.6666 31.4999 15.1666 29.9999 13.3333 29.9999C11.4999 29.9999 9.99992 31.4999 9.99992 33.3333H8.33325C5.56659 33.3333 3.33325 31.0999 3.33325 28.3333V23.3333H21.6666C23.4999 23.3333 24.9999 21.8333 24.9999 19.9999V8.33325H28.0666C29.2666 8.33325 30.3666 8.98327 30.9666 10.0166L33.8166 14.9999H31.6666C30.7499 14.9999 29.9999 15.7499 29.9999 16.6666V21.6666C29.9999 22.5833 30.7499 23.3333 31.6666 23.3333H36.6666Z" stroke="#3D4754" stroke-width="1.5" stroke-linecap="round" stroke-linejoin="round"/>
<path d="M13.3333 36.6667C15.1743 36.6667 16.6667 35.1743 16.6667 33.3333C16.6667 31.4924 15.1743 30 13.3333 30C11.4924 30 10 31.4924 10 33.3333C10 35.1743 11.4924 36.6667 13.3333 36.6667Z" stroke="#3D4754" stroke-width="1.5" stroke-linecap="round" stroke-linejoin="round"/>
<path d="M26.6666 36.6667C28.5075 36.6667 29.9999 35.1743 29.9999 33.3333C29.9999 31.4924 28.5075 30 26.6666 30C24.8256 30 23.3333 31.4924 23.3333 33.3333C23.3333 35.1743 24.8256 36.6667 26.6666 36.6667Z" stroke="#3D4754" stroke-width="1.5" stroke-linecap="round" stroke-linejoin="round"/>
<path d="M36.6667 20V23.3333H31.6667C30.75 23.3333 30 22.5833 30 21.6667V16.6667C30 15.75 30.75 15 31.6667 15H33.8167L36.6667 20Z" stroke="#3D4754" stroke-width="1.5" stroke-linecap="round" stroke-linejoin="round"/>
</svg>
