<svg width="173" height="78" viewBox="0 0 173 78" fill="none" xmlns="http://www.w3.org/2000/svg">
<path d="M172.25 1.84021V0.960205H52.02C51.69 6.98021 47 11.8402 41.05 12.4002C40.78 12.5902 40.45 12.7102 40.09 12.7102C39.73 12.7102 39.42 12.6002 39.16 12.4202C33 12.0602 28.09 7.1202 27.75 0.960205H0V1.84021C2.16 1.84021 3.92 3.59021 3.92 5.76021C3.92 7.93021 2.17 9.68021 0 9.68021V12.9702C2.16 12.9702 3.92 14.7202 3.92 16.8902C3.92 19.0602 2.17 20.8102 0 20.8102V24.1002C2.16 24.1002 3.92 25.8502 3.92 28.0202C3.92 30.1902 2.17 31.9402 0 31.9402V35.2302C2.16 35.2302 3.92 36.9802 3.92 39.1502C3.92 41.3202 2.17 43.0702 0 43.0702V46.3602C2.16 46.3602 3.92 48.1102 3.92 50.2802C3.92 52.4502 2.17 54.2002 0 54.2002V57.4902C2.16 57.4902 3.92 59.2402 3.92 61.4102C3.92 63.5802 2.17 65.3302 0 65.3302V68.6202C2.16 68.6202 3.92 70.3702 3.92 72.5402C3.92 74.7102 2.17 76.4602 0 76.4602V77.3402H27.72C27.72 70.9702 32.62 65.7502 38.86 65.2302C39.16 64.8902 39.6 64.6802 40.09 64.6802C40.58 64.6802 41.05 64.9202 41.36 65.2802C47.38 66.0102 52.05 71.1302 52.05 77.3502H172.25V76.4702C170.09 76.4702 168.33 74.7202 168.33 72.5502C168.33 70.3802 170.08 68.6302 172.25 68.6302V65.3402C170.09 65.3402 168.33 63.5902 168.33 61.4202C168.33 59.2502 170.08 57.5002 172.25 57.5002V54.2102C170.09 54.2102 168.33 52.4602 168.33 50.2902C168.33 48.1202 170.08 46.3702 172.25 46.3702V43.0802C170.09 43.0802 168.33 41.3302 168.33 39.1602C168.33 36.9902 170.08 35.2402 172.25 35.2402V31.9502C170.09 31.9502 168.33 30.2002 168.33 28.0302C168.33 25.8602 170.08 24.1102 172.25 24.1102V20.8202C170.09 20.8202 168.33 19.0702 168.33 16.9002C168.33 14.7302 170.08 12.9802 172.25 12.9802V9.6902C170.09 9.6902 168.33 7.94021 168.33 5.77021C168.33 3.60021 170.08 1.8502 172.25 1.8502V1.84021ZM40.09 63.7202C39.17 63.7202 38.42 62.9702 38.42 62.0502C38.42 61.1302 39.17 60.3802 40.09 60.3802C41.01 60.3802 41.76 61.1302 41.76 62.0502C41.76 62.9702 41.01 63.7202 40.09 63.7202ZM40.09 59.4702C39.17 59.4702 38.42 58.7202 38.42 57.8002C38.42 56.8802 39.17 56.1302 40.09 56.1302C41.01 56.1302 41.76 56.8802 41.76 57.8002C41.76 58.7202 41.01 59.4702 40.09 59.4702ZM40.09 55.2202C39.17 55.2202 38.42 54.4702 38.42 53.5502C38.42 52.6302 39.17 51.8802 40.09 51.8802C41.01 51.8802 41.76 52.6302 41.76 53.5502C41.76 54.4702 41.01 55.2202 40.09 55.2202ZM40.09 50.9702C39.17 50.9702 38.42 50.2202 38.42 49.3002C38.42 48.3802 39.17 47.6302 40.09 47.6302C41.01 47.6302 41.76 48.3802 41.76 49.3002C41.76 50.2202 41.01 50.9702 40.09 50.9702ZM40.09 46.7202C39.17 46.7202 38.42 45.9702 38.42 45.0502C38.42 44.1302 39.17 43.3802 40.09 43.3802C41.01 43.3802 41.76 44.1302 41.76 45.0502C41.76 45.9702 41.01 46.7202 40.09 46.7202ZM40.09 42.4702C39.17 42.4702 38.42 41.7202 38.42 40.8002C38.42 39.8802 39.17 39.1302 40.09 39.1302C41.01 39.1302 41.76 39.8802 41.76 40.8002C41.76 41.7202 41.01 42.4702 40.09 42.4702ZM40.09 38.2202C39.17 38.2202 38.42 37.4702 38.42 36.5502C38.42 35.6302 39.17 34.8802 40.09 34.8802C41.01 34.8802 41.76 35.6302 41.76 36.5502C41.76 37.4702 41.01 38.2202 40.09 38.2202ZM40.09 33.9702C39.17 33.9702 38.42 33.2202 38.42 32.3002C38.42 31.3802 39.17 30.6302 40.09 30.6302C41.01 30.6302 41.76 31.3802 41.76 32.3002C41.76 33.2202 41.01 33.9702 40.09 33.9702ZM40.09 29.7202C39.17 29.7202 38.42 28.9702 38.42 28.0502C38.42 27.1302 39.17 26.3802 40.09 26.3802C41.01 26.3802 41.76 27.1302 41.76 28.0502C41.76 28.9702 41.01 29.7202 40.09 29.7202ZM40.09 25.4702C39.17 25.4702 38.42 24.7202 38.42 23.8002C38.42 22.8802 39.17 22.1302 40.09 22.1302C41.01 22.1302 41.76 22.8802 41.76 23.8002C41.76 24.7202 41.01 25.4702 40.09 25.4702ZM40.09 21.2202C39.17 21.2202 38.42 20.4702 38.42 19.5502C38.42 18.6302 39.17 17.8802 40.09 17.8802C41.01 17.8802 41.76 18.6302 41.76 19.5502C41.76 20.4702 41.01 21.2202 40.09 21.2202ZM40.09 16.9702C39.17 16.9702 38.42 16.2202 38.42 15.3002C38.42 14.3802 39.17 13.6302 40.09 13.6302C41.01 13.6302 41.76 14.3802 41.76 15.3002C41.76 16.2202 41.01 16.9702 40.09 16.9702Z" fill="#E1E44A"/>
</svg>
